<svg width="40" height="41" viewBox="0 0 40 41" fill="none" xmlns="http://www.w3.org/2000/svg">
<g id="vuesax/linear/apple">
<g id="apple">
<path id="Vector" fill-rule="evenodd" clip-rule="evenodd" d="M25.6667 3.83333C26.0001 5.66666 25.1667 7.5 24.1667 8.83333C23.1667 10.1667 21.3334 11.3333 19.5001 11.1667C19.1667 9.33333 20.0001 7.66666 21.0001 6.33333C22.1667 4.99999 24.0001 3.99999 25.6667 3.83333ZM31.0001 32.8333C31.8334 31.5 32.3334 30.6667 33.0001 29.1667C27.8334 27.1667 27.0001 19.8333 32.1667 17.1667C30.6667 15.1667 28.5001 14.1667 26.3334 14.1667C24.8334 14.1667 23.8334 14.5 22.8334 14.8333C22.0001 15.1667 21.3334 15.3333 20.5001 15.3333C19.5001 15.3333 18.8334 15 17.8334 14.6667C16.8334 14.3333 15.8334 14 14.6667 14C12.3334 14 9.83341 15.3333 8.33341 17.8333C6.16674 21.1667 6.50007 27.6667 10.0001 33C11.5001 35 13.1667 37.1667 15.3334 37.1667C16.3334 37.1667 16.8334 36.8333 17.5001 36.6667C18.3334 36.3333 19.1667 36 20.5001 36C22.0001 36 22.6667 36.3333 23.5001 36.6667C24.1667 37 24.6667 37.1667 25.6667 37.1667C28.0001 37.1667 29.6667 34.6667 31.0001 32.8333Z" stroke="#17191C" stroke-width="1.5" stroke-miterlimit="10" stroke-linecap="round" stroke-linejoin="round"/>
</g>
</g>
</svg>
