<svg width="25" height="25" viewBox="0 0 25 25" fill="none" xmlns="http://www.w3.org/2000/svg">
<g id="arrow-right">
<path id="Vector" fill-rule="evenodd" clip-rule="evenodd" d="M2 12.5996C2 12.4007 2.07902 12.2099 2.21967 12.0693C2.36032 11.9286 2.55109 11.8496 2.75 11.8496H20.4395L15.719 7.13058C15.5782 6.98975 15.4991 6.79874 15.4991 6.59958C15.4991 6.40042 15.5782 6.20941 15.719 6.06858C15.8598 5.92775 16.0508 5.84863 16.25 5.84863C16.4492 5.84863 16.6402 5.92775 16.781 6.06858L22.781 12.0686C22.8508 12.1382 22.9063 12.221 22.9441 12.3121C22.9819 12.4032 23.0013 12.5009 23.0013 12.5996C23.0013 12.6982 22.9819 12.7959 22.9441 12.887C22.9063 12.9781 22.8508 13.0609 22.781 13.1306L16.781 19.1306C16.6402 19.2714 16.4492 19.3505 16.25 19.3505C16.0508 19.3505 15.8598 19.2714 15.719 19.1306C15.5782 18.9897 15.4991 18.7987 15.4991 18.5996C15.4991 18.4004 15.5782 18.2094 15.719 18.0686L20.4395 13.3496H2.75C2.55109 13.3496 2.36032 13.2706 2.21967 13.1299C2.07902 12.9893 2 12.7985 2 12.5996Z" fill="#1F2937"/>
</g>
</svg>
