<svg width="86" height="105" viewBox="0 0 86 105" fill="none" xmlns="http://www.w3.org/2000/svg">
<path id="Vector 133" d="M5.42369 1.86712C5.53835 1.32687 5.19335 0.795958 4.6531 0.681295C4.11285 0.566632 3.58193 0.91164 3.46727 1.45189L5.42369 1.86712ZM1.39538 23.5696L0.395386 23.5732L1.39538 23.5696ZM24.22 56.2355L24.7509 55.3881L24.22 56.2355ZM51.7864 59.7604L52.3197 60.6063L51.7864 59.7604ZM52.255 45.7867L52.6938 44.8881L52.255 45.7867ZM37.6982 74.8151L36.915 75.4369L37.6982 74.8151ZM85.1643 100.42L75.9041 93.5224L74.5603 104.991L85.1643 100.42ZM3.46727 1.45189C1.52781 10.5899 0.360627 13.8402 0.395386 23.5732L2.39537 23.566C2.36155 14.0938 3.4684 11.0798 5.42369 1.86712L3.46727 1.45189ZM0.395386 23.5732C0.415253 29.136 3.42889 35.7351 7.75777 41.7626C12.1065 47.8177 17.8949 53.4532 23.6892 57.083L24.7509 55.3881C19.2071 51.9153 13.6019 46.4714 9.38223 40.5959C5.14268 34.6929 2.41303 28.5103 2.39537 23.566L0.395386 23.5732ZM23.6892 57.083C26.9498 59.1256 32.1833 61.1701 37.5064 62.1406C42.7855 63.1032 48.4284 63.0598 52.3197 60.6063L51.2531 58.9145C48.0207 60.9524 43.0189 61.1127 37.8651 60.1731C32.7552 59.2414 27.7674 57.2777 24.7509 55.3881L23.6892 57.083ZM52.3197 60.6063C55.7093 58.4692 57.8864 55.5993 58.1113 52.6118C58.3435 49.5288 56.4787 46.736 52.6938 44.8881L51.8163 46.6854C55.1217 48.2991 56.2687 50.4466 56.117 52.4617C55.958 54.5723 54.3557 56.9583 51.2531 58.9145L52.3197 60.6063ZM52.6938 44.8881C47.8305 42.5138 43.6545 42.3407 40.3081 43.8207C36.9824 45.2915 34.6772 48.3069 33.352 51.9052C30.7179 59.0579 31.7819 68.9708 36.915 75.4369L38.4814 74.1934C33.8224 68.3244 32.8127 59.157 35.2288 52.5963C36.4288 49.3378 38.4298 46.8382 41.1171 45.6498C43.7836 44.4705 47.3273 44.4937 51.8163 46.6854L52.6938 44.8881ZM36.915 75.4369C45 85.6217 58.6958 96.8575 76.0285 100.353L76.424 98.3929C59.6856 95.0168 46.3689 84.1294 38.4814 74.1934L36.915 75.4369Z" fill="url(#paint0_linear_469_26124)"/>
<defs>
<linearGradient id="paint0_linear_469_26124" x1="3.42978" y1="1.62544" x2="85.0135" y2="104.918" gradientUnits="userSpaceOnUse">
<stop stop-color="#6366F1" stop-opacity="0"/>
<stop offset="0.675" stop-color="#004CE0"/>
</linearGradient>
</defs>
</svg>
