<svg width="16" height="16" viewBox="0 0 16 16" fill="none" xmlns="http://www.w3.org/2000/svg">
<g id="vuesax/bold/briefcase">
<path id="Vector" d="M14.0597 4.65351C13.493 4.02684 12.5464 3.71351 11.173 3.71351H11.013V3.68684C11.013 2.56684 11.013 1.18018 8.50637 1.18018H7.49303C4.98637 1.18018 4.98637 2.57351 4.98637 3.68684V3.72018H4.82637C3.44637 3.72018 2.50637 4.03351 1.9397 4.66018C1.2797 5.39351 1.2997 6.38018 1.36637 7.05351L1.37303 7.10018L1.41715 7.56346C1.43142 7.71323 1.51217 7.84868 1.63833 7.93065C1.79869 8.03485 2.01991 8.17585 2.1597 8.25351C2.25303 8.31351 2.35303 8.36684 2.45303 8.42018C3.59303 9.04684 4.84637 9.46684 6.1197 9.67351C6.1797 10.3002 6.45303 11.0335 7.91303 11.0335C9.37303 11.0335 9.6597 10.3068 9.70637 9.66018C11.0664 9.44018 12.3797 8.96684 13.5664 8.27351C13.6064 8.25351 13.633 8.23351 13.6664 8.21351C13.9101 8.07574 14.1623 7.90848 14.3961 7.74187C14.5096 7.661 14.5818 7.53476 14.5972 7.39625L14.5997 7.37351L14.633 7.06018C14.6397 7.02018 14.6397 6.98684 14.6464 6.94018C14.6997 6.26684 14.6864 5.34684 14.0597 4.65351ZM8.72637 9.22018C8.72637 9.92684 8.72637 10.0335 7.90637 10.0335C7.08637 10.0335 7.08637 9.90684 7.08637 9.22684V8.38684H8.72637V9.22018ZM5.9397 3.71351V3.68684C5.9397 2.55351 5.9397 2.13351 7.49303 2.13351H8.50637C10.0597 2.13351 10.0597 2.56018 10.0597 3.68684V3.72018H5.9397V3.71351Z" fill="#292D32"/>
<path id="Vector_2" d="M13.6452 9.28368C13.9999 9.11776 14.4072 9.39865 14.3718 9.78863L14.1596 12.1268C14.0196 13.4601 13.4729 14.8201 10.5396 14.8201H5.45957C2.52624 14.8201 1.97957 13.4601 1.83957 12.1335L1.63886 9.92564C1.60382 9.54018 2.00175 9.25964 2.35537 9.41698C3.1151 9.755 4.2556 10.2379 5.02927 10.4541C5.19286 10.4998 5.3254 10.6182 5.4035 10.7691C5.82435 11.5819 6.68602 12.0135 7.9129 12.0135C9.12775 12.0135 9.99947 11.5652 10.4221 10.7493C10.5003 10.5983 10.6333 10.4799 10.797 10.4338C11.6218 10.2014 12.8446 9.65815 13.6452 9.28368Z" fill="#292D32"/>
</g>
</svg>
