<svg width="40" height="40" viewBox="0 0 40 40" fill="none" xmlns="http://www.w3.org/2000/svg">
<g id="vuesax/linear/briefcase">
<g id="briefcase">
<path id="Vector" d="M13.3333 36.6667H26.6667C33.3667 36.6667 34.5667 33.9833 34.9167 30.7167L36.1667 17.3833C36.6167 13.3167 35.45 10 28.3333 10H11.6667C4.55 10 3.38333 13.3167 3.83333 17.3833L5.08333 30.7167C5.43333 33.9833 6.63333 36.6667 13.3333 36.6667Z" stroke="#292D32" stroke-width="1.5" stroke-miterlimit="10" stroke-linecap="round" stroke-linejoin="round"/>
<path id="Vector_2" d="M13.3334 10V8.66666C13.3334 5.71666 13.3334 3.33333 18.6667 3.33333H21.3334C26.6667 3.33333 26.6667 5.71666 26.6667 8.66666V10" stroke="#292D32" stroke-width="1.5" stroke-miterlimit="10" stroke-linecap="round" stroke-linejoin="round"/>
<path id="Vector_3" d="M23.3333 21.6667V23.3333C23.3333 23.35 23.3333 23.35 23.3333 23.3667C23.3333 25.1833 23.3166 26.6667 20 26.6667C16.7 26.6667 16.6666 25.2 16.6666 23.3833V21.6667C16.6666 20 16.6666 20 18.3333 20H21.6666C23.3333 20 23.3333 20 23.3333 21.6667Z" stroke="#292D32" stroke-width="1.5" stroke-miterlimit="10" stroke-linecap="round" stroke-linejoin="round"/>
<path id="Vector_4" d="M36.0834 18.3333C32.2334 21.1333 27.8334 22.8 23.3334 23.3667" stroke="#292D32" stroke-width="1.5" stroke-miterlimit="10" stroke-linecap="round" stroke-linejoin="round"/>
<path id="Vector_5" d="M4.3667 18.7833C8.1167 21.35 12.35 22.9 16.6667 23.3833" stroke="#292D32" stroke-width="1.5" stroke-miterlimit="10" stroke-linecap="round" stroke-linejoin="round"/>
</g>
</g>
</svg>
