<svg width="16" height="16" viewBox="0 0 16 16" fill="none" xmlns="http://www.w3.org/2000/svg">
<g id="vuesax/bold/clock">
<g id="clock">
<path id="Vector" d="M7.99967 1.3335C4.32634 1.3335 1.33301 4.32683 1.33301 8.00016C1.33301 11.6735 4.32634 14.6668 7.99967 14.6668C11.673 14.6668 14.6663 11.6735 14.6663 8.00016C14.6663 4.32683 11.673 1.3335 7.99967 1.3335ZM10.8997 10.3802C10.8063 10.5402 10.6397 10.6268 10.4663 10.6268C10.3797 10.6268 10.293 10.6068 10.213 10.5535L8.14634 9.32016C7.63301 9.0135 7.25301 8.34016 7.25301 7.74683V5.0135C7.25301 4.74016 7.47967 4.5135 7.75301 4.5135C8.02634 4.5135 8.25301 4.74016 8.25301 5.0135V7.74683C8.25301 7.98683 8.45301 8.34016 8.65967 8.46016L10.7263 9.6935C10.9663 9.8335 11.0463 10.1402 10.8997 10.3802Z" fill="#292D32"/>
</g>
</g>
</svg>
