<svg width="36" height="36" viewBox="0 0 36 36" fill="none" xmlns="http://www.w3.org/2000/svg">
<g id="Group">
<path id="Vector" d="M19.0421 3.1415C27.2629 3.83509 33.3531 11.0476 32.6605 19.256C31.968 27.4643 24.7544 33.567 16.5336 32.8734C8.31279 32.1798 2.2226 24.9672 2.91514 16.7589C3.60769 8.55054 10.8213 2.4479 19.0421 3.1415Z" fill="#E74D89"/>
<path id="Vector_2" d="M16.4437 33.9318C7.64994 33.1899 1.10251 25.4495 1.8434 16.6682C2.58533 7.87445 10.3371 1.34052 19.1309 2.08246C27.9246 2.8244 34.472 10.5648 33.7312 19.3461C32.9903 28.1274 25.2375 34.6737 16.4437 33.9318ZM31.0436 21.3146C30.5954 21.1262 26.9397 19.7013 22.6107 20.0135C23.9799 25.0464 24.366 29.0932 24.4337 29.9269C27.6712 28.1302 30.1263 25.0507 31.0436 21.3146ZM22.0481 30.9926C21.9497 29.78 21.5036 25.5525 20.0161 20.4344C19.9901 20.4447 19.9517 20.454 19.9268 20.4519C12.0157 22.4815 8.81422 27.5678 8.52307 28.0451C10.6761 30.0331 13.4879 31.3492 16.6392 31.615C18.5189 31.7862 20.3576 31.5524 22.0481 30.9926ZM6.90448 26.2652C7.26001 25.7683 11.518 19.9055 18.7353 18.2188C18.915 18.1713 19.106 18.1372 19.2846 18.1021C19.0134 17.3015 18.7049 16.4977 18.3704 15.7043C11.3983 17.1607 4.80413 16.5166 4.2073 16.4537C4.19574 16.5907 4.17172 16.7267 4.16016 16.8637C3.87732 20.3648 4.9286 23.6649 6.90448 26.2652ZM4.69345 14.1113C5.30273 14.1752 10.9057 14.673 17.426 13.5171C15.5099 9.31615 13.3523 5.74712 13.0445 5.23192C9.06928 6.70292 5.93302 9.97583 4.69345 14.1113ZM15.7131 4.52878C16.0447 5.05854 18.2397 8.63072 20.1235 12.9168C25.1222 11.507 27.3962 8.93912 27.6747 8.61137C25.4504 6.27862 22.396 4.71629 18.9333 4.42414C17.8372 4.33166 16.7544 4.3783 15.7131 4.52878ZM29.0494 10.308C28.7304 10.6699 26.204 13.4047 20.9985 15.0353C21.2552 15.7093 21.5109 16.3957 21.7417 17.0801C21.8214 17.3251 21.9011 17.5702 21.9818 17.8028C26.564 17.6124 30.9828 18.9135 31.4238 19.0385C31.6566 15.8342 30.7597 12.7855 29.0494 10.308Z" fill="#B2215A"/>
</g>
</svg>
