<svg width="33" height="33" viewBox="0 0 33 33" fill="none" xmlns="http://www.w3.org/2000/svg">
<g id="instagram" clip-path="url(#clip0_469_26371)">
<path id="Vector" d="M16.6363 0.742188C10.0566 0.742188 8.13231 0.748975 7.75827 0.780005C6.408 0.892244 5.56779 1.10484 4.65242 1.56059C3.94699 1.91088 3.39064 2.31693 2.84157 2.88612C1.8416 3.92415 1.23555 5.2012 1.01617 6.71922C0.909503 7.45617 0.878474 7.60646 0.872171 11.3707C0.869747 12.6255 0.872171 14.2768 0.872171 16.4918C0.872171 23.0661 0.879444 24.9885 0.910958 25.3618C1.02005 26.6757 1.2261 27.5023 1.66245 28.4066C2.49636 30.1374 4.08904 31.4368 5.96535 31.9216C6.61503 32.0889 7.33258 32.181 8.25377 32.2246C8.64406 32.2416 12.6221 32.2537 16.6026 32.2537C20.5831 32.2537 24.5636 32.2489 24.9442 32.2295C26.0108 32.1793 26.6302 32.0961 27.315 31.9192C29.2034 31.4319 30.767 30.152 31.6179 28.3969C32.0458 27.5145 32.2627 26.6563 32.3609 25.411C32.3822 25.1395 32.3912 20.8107 32.3912 16.4877C32.3912 12.1639 32.3815 7.84306 32.3602 7.57156C32.2608 6.30614 32.0438 5.45526 31.6021 4.55589C31.2397 3.81967 30.8373 3.26987 30.2531 2.7077C29.2105 1.71186 27.9354 1.10581 26.4159 0.886668C25.6797 0.780247 25.533 0.748733 21.7658 0.742188H16.6363Z" fill="url(#paint0_radial_469_26371)"/>
<path id="Vector_2" d="M16.6363 0.742188C10.0566 0.742188 8.13231 0.748975 7.75827 0.780005C6.408 0.892244 5.56779 1.10484 4.65242 1.56059C3.94699 1.91088 3.39064 2.31693 2.84157 2.88612C1.8416 3.92415 1.23555 5.2012 1.01617 6.71922C0.909503 7.45617 0.878474 7.60646 0.872171 11.3707C0.869747 12.6255 0.872171 14.2768 0.872171 16.4918C0.872171 23.0661 0.879444 24.9885 0.910958 25.3618C1.02005 26.6757 1.2261 27.5023 1.66245 28.4066C2.49636 30.1374 4.08904 31.4368 5.96535 31.9216C6.61503 32.0889 7.33258 32.181 8.25377 32.2246C8.64406 32.2416 12.6221 32.2537 16.6026 32.2537C20.5831 32.2537 24.5636 32.2489 24.9442 32.2295C26.0108 32.1793 26.6302 32.0961 27.315 31.9192C29.2034 31.4319 30.767 30.152 31.6179 28.3969C32.0458 27.5145 32.2627 26.6563 32.3609 25.411C32.3822 25.1395 32.3912 20.8107 32.3912 16.4877C32.3912 12.1639 32.3815 7.84306 32.3602 7.57156C32.2608 6.30614 32.0438 5.45526 31.6021 4.55589C31.2397 3.81967 30.8373 3.26987 30.2531 2.7077C29.2105 1.71186 27.9354 1.10581 26.4159 0.886668C25.6797 0.780247 25.533 0.748733 21.7658 0.742188H16.6363Z" fill="url(#paint1_radial_469_26371)"/>
<path id="Vector_3" d="M16.6292 4.86328C13.469 4.86328 13.0724 4.8771 11.8313 4.93358C10.5925 4.99031 9.74695 5.18642 9.0071 5.47417C8.24179 5.77138 7.59259 6.16894 6.94583 6.81595C6.29857 7.46272 5.90101 8.11191 5.60284 8.87698C5.31436 9.61708 5.118 10.4629 5.06225 11.7011C5.00673 12.9423 4.99219 13.3391 4.99219 16.4993C4.99219 19.6594 5.00625 20.0548 5.06249 21.296C5.11946 22.5347 5.31557 23.3803 5.60308 24.1202C5.90052 24.8855 6.29809 25.5347 6.9451 26.1814C7.59162 26.8287 8.24082 27.2272 9.00564 27.5244C9.74598 27.8122 10.5918 28.0083 11.8303 28.065C13.0715 28.1215 13.4678 28.1353 16.6277 28.1353C19.7881 28.1353 20.1835 28.1215 21.4247 28.065C22.6634 28.0083 23.5099 27.8122 24.2503 27.5244C25.0153 27.2272 25.6636 26.8287 26.3101 26.1814C26.9573 25.5347 27.3549 24.8855 27.6531 24.1204C27.9391 23.3803 28.1355 22.5345 28.1937 21.2962C28.2494 20.0551 28.264 19.6594 28.264 16.4993C28.264 13.3391 28.2494 12.9426 28.1937 11.7014C28.1355 10.4626 27.9391 9.61708 27.6531 8.87722C27.3549 8.11191 26.9573 7.46272 26.3101 6.81595C25.6628 6.1687 25.0156 5.77113 24.2495 5.47417C23.5077 5.18642 22.6617 4.99031 21.423 4.93358C20.1818 4.8771 19.7866 4.86328 16.6255 4.86328H16.6292ZM15.5853 6.96019C15.8951 6.9597 16.2408 6.96019 16.6292 6.96019C19.736 6.96019 20.1042 6.97134 21.3311 7.02709C22.4656 7.07897 23.0813 7.26854 23.4915 7.42781C24.0345 7.63871 24.4217 7.89083 24.8287 8.29809C25.2359 8.70535 25.4881 9.09321 25.6994 9.63623C25.8587 10.0459 26.0485 10.6617 26.1002 11.7962C26.1559 13.0228 26.168 13.3913 26.168 16.4966C26.168 19.602 26.1559 19.9705 26.1002 21.1971C26.0483 22.3316 25.8587 22.9473 25.6994 23.357C25.4885 23.9 25.2359 24.2867 24.8287 24.6937C24.4214 25.101 24.0348 25.3531 23.4915 25.564C23.0818 25.724 22.4656 25.9131 21.3311 25.9649C20.1045 26.0207 19.736 26.0328 16.6292 26.0328C13.5221 26.0328 13.1539 26.0207 11.9273 25.9649C10.7927 25.9126 10.177 25.723 9.76659 25.5637C9.22357 25.3528 8.83571 25.1007 8.42845 24.6935C8.02119 24.2862 7.76907 23.8993 7.55769 23.3561C7.39842 22.9464 7.20861 22.3306 7.15697 21.1961C7.10121 19.9695 7.09006 19.601 7.09006 16.4937C7.09006 13.3864 7.10121 13.0199 7.15697 11.7933C7.20885 10.6587 7.39842 10.043 7.55769 9.63283C7.76859 9.08982 8.02119 8.70195 8.42845 8.29469C8.83571 7.88743 9.22357 7.63532 9.76659 7.42393C10.1768 7.26394 10.7927 7.07485 11.9273 7.02273C13.0007 6.97425 13.4167 6.9597 15.5853 6.95728V6.96019ZM22.8404 8.89225C22.0695 8.89225 21.4441 9.51696 21.4441 10.2881C21.4441 11.059 22.0695 11.6844 22.8404 11.6844C23.6113 11.6844 24.2367 11.059 24.2367 10.2881C24.2367 9.5172 23.6113 8.89177 22.8404 8.89177V8.89225ZM16.6292 10.5237C13.3291 10.5237 10.6536 13.1993 10.6536 16.4993C10.6536 19.7993 13.3291 22.4737 16.6292 22.4737C19.9292 22.4737 22.6038 19.7993 22.6038 16.4993C22.6038 13.1993 19.9289 10.5237 16.6289 10.5237H16.6292ZM16.6292 12.6206C18.7712 12.6206 20.5078 14.3571 20.5078 16.4993C20.5078 18.6413 18.7712 20.378 16.6292 20.378C14.4869 20.378 12.7505 18.6413 12.7505 16.4993C12.7505 14.3571 14.4869 12.6206 16.6292 12.6206Z" fill="white"/>
</g>
<defs>
<radialGradient id="paint0_radial_469_26371" cx="0" cy="0" r="1" gradientUnits="userSpaceOnUse" gradientTransform="translate(9.24367 34.6808) rotate(-90) scale(31.2303 29.0545)">
<stop stop-color="#FFDD55"/>
<stop offset="0.1" stop-color="#FFDD55"/>
<stop offset="0.5" stop-color="#FF543E"/>
<stop offset="1" stop-color="#C837AB"/>
</radialGradient>
<radialGradient id="paint1_radial_469_26371" cx="0" cy="0" r="1" gradientUnits="userSpaceOnUse" gradientTransform="translate(-4.40869 3.01223) rotate(78.6776) scale(13.9602 57.559)">
<stop stop-color="#3771C8"/>
<stop offset="0.128" stop-color="#3771C8"/>
<stop offset="1" stop-color="#6600FF" stop-opacity="0"/>
</radialGradient>
<clipPath id="clip0_469_26371">
<rect width="32" height="31.999" fill="white" transform="translate(0.628906 0.5)"/>
</clipPath>
</defs>
</svg>
