<svg width="14" height="14" viewBox="0 0 14 14" fill="none" xmlns="http://www.w3.org/2000/svg">
<g id="search" clip-path="url(#clip0_2544_1563)">
<path id="Vector" d="M10.275 9.05122C11.1223 7.89508 11.5018 6.46165 11.3376 5.03773C11.1733 3.61381 10.4775 2.3044 9.38933 1.37146C8.30114 0.438531 6.90082 -0.0491216 5.46852 0.00606739C4.03622 0.0612564 2.67757 0.655217 1.6644 1.66912C0.651218 2.68302 0.0582298 4.04209 0.00406572 5.47443C-0.0500984 6.90677 0.438556 8.30674 1.37227 9.39426C2.30598 10.4818 3.61589 11.1767 5.03993 11.3399C6.46397 11.5031 7.89712 11.1226 9.05266 10.2745H9.05179C9.07804 10.3095 9.10604 10.3427 9.13754 10.3751L12.5063 13.7438C12.6704 13.908 12.8929 14.0003 13.125 14.0004C13.3572 14.0005 13.5798 13.9084 13.744 13.7443C13.9082 13.5802 14.0004 13.3576 14.0005 13.1255C14.0006 12.8934 13.9085 12.6708 13.7444 12.5066L10.3757 9.13785C10.3444 9.10618 10.3107 9.07693 10.275 9.05035V9.05122ZM10.5008 5.68773C10.5008 6.31971 10.3763 6.94551 10.1345 7.52939C9.8926 8.11327 9.53812 8.6438 9.09124 9.09068C8.64435 9.53756 8.11383 9.89205 7.52995 10.1339C6.94607 10.3757 6.32027 10.5002 5.68829 10.5002C5.0563 10.5002 4.4305 10.3757 3.84662 10.1339C3.26274 9.89205 2.73222 9.53756 2.28533 9.09068C1.83845 8.6438 1.48397 8.11327 1.24212 7.52939C1.00026 6.94551 0.875786 6.31971 0.875786 5.68773C0.875786 4.41137 1.38282 3.18729 2.28533 2.28477C3.18785 1.38226 4.41193 0.875225 5.68829 0.875225C6.96464 0.875225 8.18872 1.38226 9.09124 2.28477C9.99376 3.18729 10.5008 4.41137 10.5008 5.68773Z" fill="white"/>
</g>
<defs>
<clipPath id="clip0_2544_1563">
<rect width="14" height="14" fill="white"/>
</clipPath>
</defs>
</svg>
