<svg width="48" height="48" viewBox="0 0 48 48" fill="none" xmlns="http://www.w3.org/2000/svg">
<g id="slack">
<path id="Vector" fill-rule="evenodd" clip-rule="evenodd" d="M17.599 0C14.9456 0.00195719 12.7982 2.15095 12.8001 4.79902C12.7982 7.44709 14.9475 9.59608 17.6009 9.59804H22.4017V4.80098C22.4037 2.1529 20.2543 0.00391437 17.599 0C17.6009 0 17.6009 0 17.599 0M17.599 12.8H4.80079C2.14741 12.802 -0.00195575 14.9509 5.35946e-06 17.599C-0.00391685 20.2471 2.14545 22.3961 4.79883 22.4H17.599C20.2523 22.398 22.4017 20.2491 22.3997 17.601C22.4017 14.9509 20.2523 12.802 17.599 12.8Z" fill="#36C5F0"/>
<path id="Vector_2" fill-rule="evenodd" clip-rule="evenodd" d="M48.0003 17.599C48.0023 14.9509 45.8529 12.802 43.1995 12.8C40.5462 12.802 38.3968 14.9509 38.3988 17.599V22.4H43.1995C45.8529 22.398 48.0023 20.2491 48.0003 17.599ZM35.2002 17.599V4.79902C35.2022 2.1529 33.0547 0.00391437 30.4014 0C27.748 0.00195719 25.5986 2.15095 25.6006 4.79902V17.599C25.5967 20.2471 27.746 22.3961 30.3994 22.4C33.0528 22.398 35.2022 20.2491 35.2002 17.599Z" fill="#2EB67D"/>
<path id="Vector_3" fill-rule="evenodd" clip-rule="evenodd" d="M30.3994 48.0001C33.0528 47.9981 35.2022 45.8492 35.2002 43.2011C35.2022 40.553 33.0528 38.404 30.3994 38.4021H25.5986V43.2011C25.5967 45.8472 27.746 47.9962 30.3994 48.0001ZM30.3994 35.1981H43.1995C45.8529 35.1962 48.0023 33.0472 48.0003 30.3991C48.0043 27.751 45.8549 25.6021 43.2015 25.5981H30.4014C27.748 25.6001 25.5986 27.7491 25.6006 30.3972C25.5986 33.0472 27.746 35.1962 30.3994 35.1981Z" fill="#ECB22E"/>
<path id="Vector_4" fill-rule="evenodd" clip-rule="evenodd" d="M1.34093e-06 30.3991C-0.00195976 33.0472 2.14741 35.1962 4.80078 35.1981C7.45416 35.1962 9.60353 33.0472 9.60157 30.3991V25.6001H4.80078C2.14741 25.6021 -0.00195976 27.751 1.34093e-06 30.3991ZM12.8001 30.3991V43.1991C12.7962 45.8472 14.9456 47.9962 17.599 48.0001C20.2523 47.9981 22.4017 45.8491 22.3997 43.2011V30.403C22.4037 27.755 20.2543 25.606 17.6009 25.6021C14.9456 25.6021 12.7982 27.751 12.8001 30.3991C12.8001 30.4011 12.8001 30.3991 12.8001 30.3991Z" fill="#E01E5A"/>
</g>
</svg>
