<svg width="14" height="15" viewBox="0 0 14 15" fill="none" xmlns="http://www.w3.org/2000/svg">
<g id="vuesax/bold/trash">
<g id="trash">
<path id="Vector" d="M12.291 3.55083C11.3518 3.4575 10.4126 3.3875 9.46763 3.335V3.32917L9.3393 2.57083C9.2518 2.03417 9.12347 1.22917 7.75847 1.22917H6.23013C4.87097 1.22917 4.74263 1.99917 4.6493 2.565L4.5268 3.31167C3.9843 3.34667 3.4418 3.38167 2.8993 3.43417L1.7093 3.55083C1.4643 3.57417 1.2893 3.79 1.31263 4.02917C1.33597 4.26833 1.54597 4.44333 1.79097 4.42L2.98097 4.30333C6.03763 4 9.11763 4.11667 12.2093 4.42583C12.2268 4.42583 12.2385 4.42583 12.256 4.42583C12.4776 4.42583 12.6701 4.25667 12.6935 4.02917C12.711 3.79 12.536 3.57417 12.291 3.55083Z" fill="#991B1B"/>
<path id="Vector_2" d="M11.2175 5.24833C11.0775 5.1025 10.885 5.02083 10.6867 5.02083H3.31335C3.11502 5.02083 2.91668 5.1025 2.78252 5.24833C2.64835 5.39417 2.57252 5.5925 2.58418 5.79667L2.94585 11.7817C3.01002 12.6683 3.09168 13.7767 5.12752 13.7767H8.87252C10.9083 13.7767 10.99 12.6742 11.0542 11.7817L11.4158 5.8025C11.4275 5.5925 11.3517 5.39417 11.2175 5.24833ZM7.96835 10.8542H6.02585C5.78668 10.8542 5.58835 10.6558 5.58835 10.4167C5.58835 10.1775 5.78668 9.97917 6.02585 9.97917H7.96835C8.20752 9.97917 8.40585 10.1775 8.40585 10.4167C8.40585 10.6558 8.20752 10.8542 7.96835 10.8542ZM8.45835 8.52083H5.54168C5.30252 8.52083 5.10418 8.3225 5.10418 8.08333C5.10418 7.84417 5.30252 7.64583 5.54168 7.64583H8.45835C8.69752 7.64583 8.89585 7.84417 8.89585 8.08333C8.89585 8.3225 8.69752 8.52083 8.45835 8.52083Z" fill="#991B1B"/>
</g>
</g>
</svg>
