<svg width="33" height="33" viewBox="0 0 33 33" fill="none" xmlns="http://www.w3.org/2000/svg">
<g id="twitter" clip-path="url(#clip0_469_26374)">
<path id="Vector" d="M32.6289 5.5785C31.4515 6.10066 30.1862 6.45356 28.8582 6.61228C30.2137 5.79973 31.2546 4.51312 31.7448 2.98013C30.4764 3.73241 29.0713 4.27879 27.5759 4.57329C26.3783 3.29734 24.672 2.5 22.7838 2.5C19.158 2.5 16.2184 5.43945 16.2184 9.06504C16.2184 9.57959 16.2766 10.0807 16.3885 10.5612C10.9321 10.2874 6.09462 7.67368 2.85658 3.70174C2.29147 4.67137 1.96771 5.79914 1.96771 7.00229C1.96771 9.27994 3.12685 11.2894 4.88843 12.4667C3.81217 12.4327 2.79993 12.1373 1.91469 11.6456C1.91422 11.673 1.91422 11.7005 1.91422 11.7281C1.91422 14.9091 4.17724 17.5626 7.1806 18.1656C6.62965 18.3156 6.04967 18.3958 5.45085 18.3958C5.02784 18.3958 4.61653 18.3547 4.21575 18.2781C5.05113 20.8864 7.47568 22.7845 10.3485 22.8375C8.10166 24.5982 5.27083 25.6478 2.19502 25.6478C1.66514 25.6478 1.14252 25.6168 0.628906 25.5562C3.53429 27.4189 6.98525 28.5057 10.6928 28.5057C22.7685 28.5057 29.3719 18.5019 29.3719 9.82632C29.3719 9.54166 29.3656 9.25852 29.3529 8.97702C30.6356 8.0514 31.7487 6.89507 32.6289 5.5785Z" fill="#55ACEE"/>
</g>
<defs>
<clipPath id="clip0_469_26374">
<rect width="32" height="32" fill="white" transform="translate(0.628906 0.5)"/>
</clipPath>
</defs>
</svg>
