<svg width="171" height="49" viewBox="0 0 171 49" fill="none" xmlns="http://www.w3.org/2000/svg">
<path d="M6.83976 25.7299C7.67115 24.2899 9.74961 24.2899 10.581 25.7299L17.1281 37.0699C17.9595 38.5099 16.9203 40.3099 15.2575 40.3099H2.16322C0.500451 40.3099 -0.538776 38.5099 0.292608 37.0699L6.83976 25.7299Z" fill="#004CE0"/>
<path d="M28.08 25.7299C28.9114 24.2899 30.9898 24.2899 31.8212 25.7299L38.3684 37.0699C39.1998 38.5099 38.1605 40.3099 36.4978 40.3099H23.4035C21.7407 40.3099 20.7015 38.5099 21.5328 37.0699L28.08 25.7299Z" fill="#004CE0"/>
<path d="M17.04 8.92961C17.8713 7.48961 19.9498 7.48961 20.7812 8.92961L27.3283 20.2696C28.1597 21.7096 27.1205 23.5096 25.4577 23.5096H12.3634C10.7006 23.5096 9.66142 21.7096 10.4928 20.2696L17.04 8.92961Z" fill="#FF9D00"/>
<path d="M54.5463 11H51.5223L48.7575 1.28H50.9103L52.9263 8.8328C52.9503 8.9288 52.9695 9.0368 52.9839 9.1568C52.9983 9.272 53.0079 9.3776 53.0127 9.4736L53.0487 9.9704H53.1567L53.2071 9.4736C53.2119 9.3776 53.2239 9.272 53.2431 9.1568C53.2623 9.0368 53.2839 8.9288 53.3079 8.8328L55.8423 1.28H58.6071L61.2495 9.1352C61.2687 9.188 61.2807 9.2336 61.2855 9.272L61.2999 9.9704H61.4151L61.4223 9.272C61.4271 9.248 61.4295 9.2264 61.4295 9.2072C61.4343 9.1832 61.4415 9.1592 61.4511 9.1352L63.5895 1.28H65.7423L62.9343 11H59.9031L57.4119 3.2528C57.3879 3.1568 57.3663 3.0512 57.3471 2.936C57.3327 2.816 57.3231 2.708 57.3183 2.612L57.2823 2.3024H57.1671L57.1311 2.612C57.1263 2.708 57.1143 2.816 57.0951 2.936C57.0807 3.0512 57.0615 3.1568 57.0375 3.2528L54.5463 11ZM72.5161 11.0792C70.7833 11.0792 69.3577 10.6928 68.2393 9.92C67.1209 9.1424 66.5617 7.8824 66.5617 6.14C66.5617 4.3976 67.1185 3.1376 68.2321 2.36C69.3505 1.5824 70.7785 1.1936 72.5161 1.1936C74.2489 1.1936 75.6745 1.5824 76.7929 2.36C77.9113 3.1376 78.4705 4.3976 78.4705 6.14C78.4705 7.8824 77.9113 9.1424 76.7929 9.92C75.6745 10.6928 74.2489 11.0792 72.5161 11.0792ZM72.5161 9.776C73.6681 9.776 74.6209 9.5072 75.3745 8.9696C76.1329 8.432 76.5121 7.4888 76.5121 6.14C76.5121 4.7864 76.1329 3.8408 75.3745 3.3032C74.6209 2.7656 73.6681 2.4968 72.5161 2.4968C71.3641 2.4968 70.4089 2.7656 69.6505 3.3032C68.8969 3.8408 68.5201 4.7864 68.5201 6.14C68.5201 7.4888 68.8969 8.432 69.6505 8.9696C70.4089 9.5072 71.3641 9.776 72.5161 9.776ZM79.7177 1.28H86.4281C87.5753 1.28 88.4297 1.5536 88.9913 2.1008C89.5577 2.648 89.8409 3.3728 89.8409 4.2752C89.8409 5.1728 89.5505 5.8904 88.9697 6.428C88.4657 6.8888 87.7409 7.1504 86.7953 7.2128L86.8745 7.3352L87.5801 7.256L89.7833 11H87.6017L85.3121 7.2272H81.6761V11H79.7177V1.28ZM85.8449 5.9312C86.5457 5.9312 87.0593 5.7872 87.3857 5.4992C87.7121 5.2112 87.8753 4.8104 87.8753 4.2968C87.8753 3.7976 87.7097 3.3992 87.3785 3.1016C87.0521 2.804 86.5409 2.6552 85.8449 2.6552H81.6761V5.9312H85.8449ZM92.6919 6.104L92.7783 6.1904L98.6679 1.28H101.001L95.5791 5.8952L101.022 11H98.6967L94.2831 7.004L93.0735 8.012V11H91.1223V1.28H93.0735V5.24C93.0735 5.3456 93.0543 5.456 93.0159 5.5712C92.9775 5.6816 92.9271 5.7776 92.8647 5.8592L92.6919 6.104ZM107.691 1.28H116.532V2.7416H109.649V5.4128H116.107V6.8744H109.649V11H107.691V1.28ZM123.563 11.0792C121.83 11.0792 120.405 10.6928 119.286 9.92C118.168 9.1424 117.609 7.8824 117.609 6.14C117.609 4.3976 118.165 3.1376 119.279 2.36C120.397 1.5824 121.825 1.1936 123.563 1.1936C125.296 1.1936 126.721 1.5824 127.84 2.36C128.958 3.1376 129.517 4.3976 129.517 6.14C129.517 7.8824 128.958 9.1424 127.84 9.92C126.721 10.6928 125.296 11.0792 123.563 11.0792ZM123.563 9.776C124.715 9.776 125.668 9.5072 126.421 8.9696C127.18 8.432 127.559 7.4888 127.559 6.14C127.559 4.7864 127.18 3.8408 126.421 3.3032C125.668 2.7656 124.715 2.4968 123.563 2.4968C122.411 2.4968 121.456 2.7656 120.697 3.3032C119.944 3.8408 119.567 4.7864 119.567 6.14C119.567 7.4888 119.944 8.432 120.697 8.9696C121.456 9.5072 122.411 9.776 123.563 9.776ZM130.765 1.28H137.475C138.622 1.28 139.477 1.5536 140.038 2.1008C140.605 2.648 140.888 3.3728 140.888 4.2752C140.888 5.1728 140.597 5.8904 140.017 6.428C139.513 6.8888 138.788 7.1504 137.842 7.2128L137.921 7.3352L138.627 7.256L140.83 11H138.649L136.359 7.2272H132.723V11H130.765V1.28ZM136.892 5.9312C137.593 5.9312 138.106 5.7872 138.433 5.4992C138.759 5.2112 138.922 4.8104 138.922 4.2968C138.922 3.7976 138.757 3.3992 138.425 3.1016C138.099 2.804 137.588 2.6552 136.892 2.6552H132.723V5.9312H136.892ZM147.771 11.0648C146.009 11.0648 144.617 10.6592 143.595 9.848C142.572 9.0368 142.061 7.796 142.061 6.1256C142.061 4.4552 142.572 3.2168 143.595 2.4104C144.617 1.5992 146.007 1.1936 147.764 1.1936C149.506 1.1936 150.843 1.5608 151.774 2.2952C152.71 3.0248 153.178 3.98 153.178 5.1608H151.184C151.184 4.3304 150.884 3.7016 150.284 3.2744C149.684 2.8472 148.836 2.6336 147.742 2.6336C146.624 2.6336 145.731 2.8904 145.064 3.404C144.396 3.9176 144.063 4.8248 144.063 6.1256C144.063 7.4264 144.396 8.336 145.064 8.8544C145.736 9.368 146.628 9.6248 147.742 9.6248C148.832 9.6248 149.676 9.404 150.276 8.9624C150.881 8.5208 151.184 7.8896 151.184 7.0688H153.178C153.178 8.2352 152.71 9.1928 151.774 9.9416C150.843 10.6904 149.508 11.0648 147.771 11.0648ZM154.636 1.28H164.011V2.7416H156.595V5.312H163.679V6.7808H156.595V9.5384H164.011V11H154.636V1.28Z" fill="#FF9D00"/>
<path d="M53.9775 41H49.2111V21.56H57.0303L62.5023 34.0016C62.5791 34.2224 62.6367 34.472 62.6751 34.7504C62.7231 35.0192 62.7519 35.2688 62.7615 35.4992L62.8047 36.9968H63.0927L63.1359 35.4992C63.1359 35.2688 63.1551 35.0192 63.1935 34.7504C63.2415 34.472 63.3039 34.2224 63.3807 34.0016L68.8095 21.56H76.5135V41H71.7471V29.5088C71.7471 29.2784 71.7663 29.024 71.8047 28.7456C71.8431 28.4576 71.8959 28.2032 71.9631 27.9824L72.4527 24.8144H72.1791L65.7135 41H60.0111L53.5599 24.8144H53.2719L53.7615 28.0832C53.8287 28.304 53.8815 28.5536 53.9199 28.832C53.9583 29.1008 53.9775 29.3552 53.9775 29.5952V41ZM79.3899 21.56H98.5707V25.1312H84.2139V29.336H97.9371V32.936H84.2139V37.4288H98.5707V41H79.3899V21.56ZM100.792 21.56H114.76C117.112 21.56 118.879 22.1312 120.06 23.2736C121.25 24.4064 121.845 25.9088 121.845 27.7808C121.845 29.6432 121.226 31.1264 119.988 32.2304C118.951 33.1712 117.477 33.7136 115.567 33.8576L115.74 34.1168L117.496 33.8864L121.73 41H116.373L111.981 33.8864H105.616V41H100.792V21.56ZM113.306 30.7328C114.554 30.7328 115.485 30.4832 116.1 29.984C116.714 29.4752 117.021 28.76 117.021 27.8384C117.021 26.9456 116.714 26.24 116.1 25.7216C115.485 25.1936 114.554 24.9296 113.306 24.9296H105.616V30.7328H113.306ZM135.329 41.1152C131.787 41.1152 129.003 40.3232 126.977 38.7392C124.951 37.1456 123.939 34.6448 123.939 31.2368C123.939 27.8672 124.971 25.3856 127.035 23.792C129.108 22.1888 131.959 21.3872 135.588 21.3872C138.891 21.3872 141.55 22.0544 143.566 23.3888C145.582 24.7136 146.638 26.4752 146.734 28.6736H141.91C141.795 27.3776 141.228 26.3696 140.211 25.6496C139.203 24.92 137.667 24.5552 135.603 24.5552C133.443 24.5552 131.767 25.064 130.577 26.0816C129.396 27.0896 128.806 28.8272 128.806 31.2944C128.806 33.5696 129.401 35.2496 130.591 36.3344C131.782 37.4096 133.467 37.9472 135.646 37.9472C137.729 37.9472 139.251 37.592 140.211 36.8816C141.171 36.1712 141.689 35.1632 141.766 33.8576L141.939 33.6128H136.092V30.92H146.734V41H143.609L143.595 38.0192L144.113 36.6512L143.868 36.2912L143.321 37.4288C142.265 39.8864 139.601 41.1152 135.329 41.1152ZM149.196 21.56H168.377V25.1312H154.02V29.336H167.743V32.936H154.02V37.4288H168.377V41H149.196V21.56Z" fill="#004CE0"/>
</svg>
