<svg width="14" height="14" viewBox="0 0 14 14" fill="none" xmlns="http://www.w3.org/2000/svg">
<g id="x">
<g id="Vector">
<mask id="path-1-inside-1_2584_9864" fill="white">
<path d="M4.06506 4.06525C4.1057 4.02451 4.15397 3.99219 4.20713 3.97013C4.26028 3.94807 4.31726 3.93672 4.37481 3.93672C4.43235 3.93672 4.48933 3.94807 4.54248 3.97013C4.59564 3.99219 4.64392 4.02451 4.68456 4.06525L6.99981 6.38138L9.31506 4.06525C9.35573 4.02458 9.40402 3.99231 9.45717 3.9703C9.51032 3.94828 9.56728 3.93695 9.62481 3.93695C9.68233 3.93695 9.73929 3.94828 9.79244 3.9703C9.84559 3.99231 9.89388 4.02458 9.93456 4.06525C9.97523 4.10593 10.0075 4.15422 10.0295 4.20737C10.0515 4.26052 10.0629 4.31748 10.0629 4.375C10.0629 4.43253 10.0515 4.48949 10.0295 4.54264C10.0075 4.59579 9.97523 4.64408 9.93456 4.68475L7.61843 7L9.93456 9.31525C9.97523 9.35593 10.0075 9.40422 10.0295 9.45737C10.0515 9.51052 10.0629 9.56748 10.0629 9.625C10.0629 9.68253 10.0515 9.73949 10.0295 9.79264C10.0075 9.84579 9.97523 9.89408 9.93456 9.93475C9.89388 9.97543 9.84559 10.0077 9.79244 10.0297C9.73929 10.0517 9.68233 10.0631 9.62481 10.0631C9.56728 10.0631 9.51032 10.0517 9.45717 10.0297C9.40402 10.0077 9.35573 9.97543 9.31506 9.93475L6.99981 7.61863L4.68456 9.93475C4.64388 9.97543 4.59559 10.0077 4.54244 10.0297C4.48929 10.0517 4.43233 10.0631 4.37481 10.0631C4.31728 10.0631 4.26032 10.0517 4.20717 10.0297C4.15402 10.0077 4.10573 9.97543 4.06506 9.93475C4.02438 9.89408 3.99211 9.84579 3.9701 9.79264C3.94808 9.73949 3.93675 9.68253 3.93675 9.625C3.93675 9.56748 3.94808 9.51052 3.9701 9.45737C3.99211 9.40422 4.02438 9.35593 4.06506 9.31525L6.38118 7L4.06506 4.68475C4.02431 4.64411 3.99199 4.59584 3.96993 4.54268C3.94788 4.48953 3.93652 4.43255 3.93652 4.375C3.93652 4.31746 3.94788 4.26048 3.96993 4.20732C3.99199 4.15417 4.02431 4.10589 4.06506 4.06525Z"/>
</mask>
<path d="M4.06506 4.06525C4.1057 4.02451 4.15397 3.99219 4.20713 3.97013C4.26028 3.94807 4.31726 3.93672 4.37481 3.93672C4.43235 3.93672 4.48933 3.94807 4.54248 3.97013C4.59564 3.99219 4.64392 4.02451 4.68456 4.06525L6.99981 6.38138L9.31506 4.06525C9.35573 4.02458 9.40402 3.99231 9.45717 3.9703C9.51032 3.94828 9.56728 3.93695 9.62481 3.93695C9.68233 3.93695 9.73929 3.94828 9.79244 3.9703C9.84559 3.99231 9.89388 4.02458 9.93456 4.06525C9.97523 4.10593 10.0075 4.15422 10.0295 4.20737C10.0515 4.26052 10.0629 4.31748 10.0629 4.375C10.0629 4.43253 10.0515 4.48949 10.0295 4.54264C10.0075 4.59579 9.97523 4.64408 9.93456 4.68475L7.61843 7L9.93456 9.31525C9.97523 9.35593 10.0075 9.40422 10.0295 9.45737C10.0515 9.51052 10.0629 9.56748 10.0629 9.625C10.0629 9.68253 10.0515 9.73949 10.0295 9.79264C10.0075 9.84579 9.97523 9.89408 9.93456 9.93475C9.89388 9.97543 9.84559 10.0077 9.79244 10.0297C9.73929 10.0517 9.68233 10.0631 9.62481 10.0631C9.56728 10.0631 9.51032 10.0517 9.45717 10.0297C9.40402 10.0077 9.35573 9.97543 9.31506 9.93475L6.99981 7.61863L4.68456 9.93475C4.64388 9.97543 4.59559 10.0077 4.54244 10.0297C4.48929 10.0517 4.43233 10.0631 4.37481 10.0631C4.31728 10.0631 4.26032 10.0517 4.20717 10.0297C4.15402 10.0077 4.10573 9.97543 4.06506 9.93475C4.02438 9.89408 3.99211 9.84579 3.9701 9.79264C3.94808 9.73949 3.93675 9.68253 3.93675 9.625C3.93675 9.56748 3.94808 9.51052 3.9701 9.45737C3.99211 9.40422 4.02438 9.35593 4.06506 9.31525L6.38118 7L4.06506 4.68475C4.02431 4.64411 3.99199 4.59584 3.96993 4.54268C3.94788 4.48953 3.93652 4.43255 3.93652 4.375C3.93652 4.31746 3.94788 4.26048 3.96993 4.20732C3.99199 4.15417 4.02431 4.10589 4.06506 4.06525Z" fill="#1F2937"/>
<path d="M4.06506 4.06525L4.77127 4.77326L4.77306 4.77147L4.06506 4.06525ZM4.68456 4.06525L3.97656 4.77147L3.97731 4.77223L4.68456 4.06525ZM6.99981 6.38138L6.29256 7.08835L6.99981 7.79586L7.70705 7.08835L6.99981 6.38138ZM9.31506 4.06525L8.60795 3.35815L8.60781 3.35828L9.31506 4.06525ZM10.0629 4.375H9.06286H10.0629ZM9.93456 4.68475L10.6415 5.39199L10.6417 5.39186L9.93456 4.68475ZM7.61843 7L6.91146 6.29276L6.20395 7L6.91146 7.70724L7.61843 7ZM9.93456 9.31525L10.6417 8.60815L10.6415 8.60801L9.93456 9.31525ZM10.0629 9.625H9.06286H10.0629ZM9.62481 10.0631V9.06306V10.0631ZM9.31506 9.93475L8.60781 10.6417L8.60795 10.6419L9.31506 9.93475ZM6.99981 7.61863L7.70705 6.91166L6.99981 6.20415L6.29256 6.91166L6.99981 7.61863ZM4.68456 9.93475L5.39166 10.6419L5.3918 10.6417L4.68456 9.93475ZM4.37481 10.0631V9.06306V10.0631ZM4.06506 9.31525L3.35808 8.60801L3.35795 8.60815L4.06506 9.31525ZM6.38118 7L7.08815 7.70724L7.79566 7L7.08815 6.29276L6.38118 7ZM4.06506 4.68475L4.77203 3.97751L4.77127 3.97675L4.06506 4.68475ZM4.77306 4.77147C4.7208 4.82385 4.65873 4.86541 4.59039 4.89377L3.82386 3.04649C3.64922 3.11896 3.49059 3.22517 3.35706 3.35904L4.77306 4.77147ZM4.59039 4.89377C4.52205 4.92213 4.44879 4.93672 4.37481 4.93672V2.93672C4.18573 2.93672 3.99851 2.97402 3.82386 3.04649L4.59039 4.89377ZM4.37481 4.93672C4.30082 4.93672 4.22756 4.92213 4.15922 4.89377L4.92575 3.04649C4.75111 2.97402 4.56388 2.93672 4.37481 2.93672V4.93672ZM4.15922 4.89377C4.09088 4.86541 4.02881 4.82385 3.97656 4.77147L5.39256 3.35904C5.25902 3.22517 5.1004 3.11896 4.92575 3.04649L4.15922 4.89377ZM3.97731 4.77223L6.29256 7.08835L7.70705 5.67441L5.3918 3.35828L3.97731 4.77223ZM7.70705 7.08835L10.0223 4.77223L8.60781 3.35828L6.29256 5.67441L7.70705 7.08835ZM10.0222 4.77236C9.96998 4.82454 9.90803 4.86593 9.83985 4.89418L9.07449 3.04642C8.90001 3.11869 8.74148 3.22461 8.60795 3.35815L10.0222 4.77236ZM9.83985 4.89418C9.77167 4.92242 9.6986 4.93695 9.62481 4.93695V2.93695C9.43596 2.93695 9.24896 2.97415 9.07449 3.04642L9.83985 4.89418ZM9.62481 4.93695C9.55101 4.93695 9.47794 4.92242 9.40976 4.89418L10.1751 3.04642C10.0007 2.97415 9.81365 2.93695 9.62481 2.93695V4.93695ZM9.40976 4.89418C9.34158 4.86593 9.27963 4.82454 9.22745 4.77236L10.6417 3.35815C10.5081 3.22461 10.3496 3.11869 10.1751 3.04642L9.40976 4.89418ZM9.22745 4.77236C9.17527 4.72018 9.13387 4.65823 9.10563 4.59005L10.9534 3.82468C10.8811 3.65021 10.7752 3.49168 10.6417 3.35815L9.22745 4.77236ZM9.10563 4.59005C9.07739 4.52187 9.06286 4.44879 9.06286 4.375H11.0629C11.0629 4.18616 11.0257 3.99916 10.9534 3.82468L9.10563 4.59005ZM9.06286 4.375C9.06286 4.30121 9.07739 4.22814 9.10563 4.15996L10.9534 4.92532C11.0257 4.75085 11.0629 4.56385 11.0629 4.375H9.06286ZM9.10563 4.15996C9.13387 4.09178 9.17527 4.02983 9.22745 3.97765L10.6417 5.39186C10.7752 5.25833 10.8811 5.0998 10.9534 4.92532L9.10563 4.15996ZM9.22758 3.97751L6.91146 6.29276L8.3254 7.70724L10.6415 5.39199L9.22758 3.97751ZM6.91146 7.70724L9.22758 10.0225L10.6415 8.60801L8.3254 6.29276L6.91146 7.70724ZM9.22745 10.0224C9.17527 9.97018 9.13387 9.90823 9.10563 9.84005L10.9534 9.07468C10.8811 8.90021 10.7752 8.74168 10.6417 8.60815L9.22745 10.0224ZM9.10563 9.84005C9.07739 9.77187 9.06286 9.69879 9.06286 9.625H11.0629C11.0629 9.43616 11.0257 9.24916 10.9534 9.07468L9.10563 9.84005ZM9.06286 9.625C9.06286 9.55121 9.07739 9.47814 9.10563 9.40996L10.9534 10.1753C11.0257 10.0008 11.0629 9.81385 11.0629 9.625H9.06286ZM9.10563 9.40996C9.13387 9.34178 9.17527 9.27983 9.22745 9.22765L10.6417 10.6419C10.7752 10.5083 10.8811 10.3498 10.9534 10.1753L9.10563 9.40996ZM9.22745 9.22765C9.27963 9.17547 9.34158 9.13407 9.40976 9.10583L10.1751 10.9536C10.3496 10.8813 10.5081 10.7754 10.6417 10.6419L9.22745 9.22765ZM9.40976 9.10583C9.47794 9.07759 9.55101 9.06306 9.62481 9.06306V11.0631C9.81365 11.0631 10.0006 11.0259 10.1751 10.9536L9.40976 9.10583ZM9.62481 9.06306C9.6986 9.06306 9.77167 9.07759 9.83985 9.10583L9.07449 10.9536C9.24896 11.0259 9.43596 11.0631 9.62481 11.0631V9.06306ZM9.83985 9.10583C9.90803 9.13407 9.96998 9.17547 10.0222 9.22765L8.60795 10.6419C8.74148 10.7754 8.90001 10.8813 9.07449 10.9536L9.83985 9.10583ZM10.0223 9.22778L7.70705 6.91166L6.29256 8.3256L8.60781 10.6417L10.0223 9.22778ZM6.29256 6.91166L3.97731 9.22778L5.3918 10.6417L7.70705 8.3256L6.29256 6.91166ZM3.97745 9.22765C4.02963 9.17547 4.09158 9.13407 4.15976 9.10583L4.92512 10.9536C5.0996 10.8813 5.25813 10.7754 5.39166 10.6419L3.97745 9.22765ZM4.15976 9.10583C4.22794 9.07759 4.30101 9.06306 4.37481 9.06306V11.0631C4.56365 11.0631 4.75065 11.0259 4.92512 10.9536L4.15976 9.10583ZM4.37481 9.06306C4.4486 9.06306 4.52167 9.07759 4.58985 9.10583L3.82449 10.9536C3.99896 11.0259 4.18596 11.0631 4.37481 11.0631V9.06306ZM4.58985 9.10583C4.65803 9.13407 4.71998 9.17547 4.77216 9.22765L3.35795 10.6419C3.49148 10.7754 3.65001 10.8813 3.82449 10.9536L4.58985 9.10583ZM4.77216 9.22765C4.82434 9.27983 4.86574 9.34178 4.89398 9.40996L3.04622 10.1753C3.11849 10.3498 3.22441 10.5083 3.35795 10.6419L4.77216 9.22765ZM4.89398 9.40996C4.92222 9.47813 4.93675 9.55121 4.93675 9.625H2.93675C2.93675 9.81385 2.97395 10.0009 3.04622 10.1753L4.89398 9.40996ZM4.93675 9.625C4.93675 9.6988 4.92222 9.77187 4.89398 9.84005L3.04622 9.07468C2.97395 9.24916 2.93675 9.43616 2.93675 9.625H4.93675ZM4.89398 9.84005C4.86574 9.90823 4.82434 9.97018 4.77216 10.0224L3.35795 8.60815C3.22441 8.74168 3.11849 8.90021 3.04622 9.07468L4.89398 9.84005ZM4.77203 10.0225L7.08815 7.70724L5.67421 6.29276L3.35808 8.60801L4.77203 10.0225ZM7.08815 6.29276L4.77203 3.97751L3.35808 5.39199L5.67421 7.70724L7.08815 6.29276ZM4.77127 3.97675C4.82365 4.029 4.86521 4.09108 4.89357 4.15942L3.04629 4.92595C3.11876 5.10059 3.22497 5.25922 3.35884 5.39275L4.77127 3.97675ZM4.89357 4.15942C4.92193 4.22776 4.93652 4.30102 4.93652 4.375H2.93652C2.93652 4.56408 2.97382 4.7513 3.04629 4.92595L4.89357 4.15942ZM4.93652 4.375C4.93652 4.44899 4.92193 4.52225 4.89357 4.59059L3.04629 3.82406C2.97382 3.9987 2.93652 4.18593 2.93652 4.375H4.93652ZM4.89357 4.59059C4.86521 4.65893 4.82365 4.721 4.77127 4.77325L3.35884 3.35725C3.22497 3.49078 3.11876 3.64941 3.04629 3.82406L4.89357 4.59059Z" fill="#1F2937" mask="url(#path-1-inside-1_2584_9864)"/>
</g>
</g>
</svg>
