<svg width="25" height="25" viewBox="0 0 25 25" fill="none" xmlns="http://www.w3.org/2000/svg">
<g id="arrow-left">
<path id="Vector" fill-rule="evenodd" clip-rule="evenodd" d="M22.9994 12.5996C22.9994 12.4007 22.9204 12.2099 22.7797 12.0693C22.6391 11.9286 22.4483 11.8496 22.2494 11.8496H4.55989L9.28039 7.13058C9.35012 7.06085 9.40543 6.97806 9.44317 6.88696C9.48091 6.79585 9.50033 6.6982 9.50033 6.59958C9.50033 6.50096 9.48091 6.40331 9.44317 6.31221C9.40543 6.2211 9.35012 6.13831 9.28039 6.06858C9.21066 5.99885 9.12787 5.94353 9.03676 5.9058C8.94565 5.86806 8.848 5.84863 8.74939 5.84863C8.65077 5.84863 8.55312 5.86806 8.46201 5.9058C8.3709 5.94353 8.28812 5.99885 8.21839 6.06858L2.21839 12.0686C2.14854 12.1382 2.09313 12.221 2.05532 12.3121C2.01751 12.4032 1.99805 12.5009 1.99805 12.5996C1.99805 12.6982 2.01751 12.7959 2.05532 12.887C2.09313 12.9781 2.14854 13.0609 2.21839 13.1306L8.21839 19.1306C8.28812 19.2003 8.3709 19.2556 8.46201 19.2934C8.55312 19.3311 8.65077 19.3505 8.74939 19.3505C8.848 19.3505 8.94565 19.3311 9.03676 19.2934C9.12787 19.2556 9.21066 19.2003 9.28039 19.1306C9.35012 19.0608 9.40543 18.9781 9.44317 18.887C9.48091 18.7958 9.50033 18.6982 9.50033 18.5996C9.50033 18.501 9.48091 18.4033 9.44317 18.3122C9.40543 18.2211 9.35012 18.1383 9.28039 18.0686L4.55989 13.3496H22.2494C22.4483 13.3496 22.6391 13.2706 22.7797 13.1299C22.9204 12.9893 22.9994 12.7985 22.9994 12.5996Z" fill="#1F2937"/>
</g>
</svg>
