<svg width="71" height="113" viewBox="0 0 71 113" fill="none" xmlns="http://www.w3.org/2000/svg">
<path id="Vector 134" d="M0.85171 111.005C0.308084 111.102 -0.0536444 111.622 0.0437677 112.165C0.14118 112.709 0.660844 113.071 1.20447 112.973L0.85171 111.005ZM44.1265 73.1031L43.1414 72.9307L44.1265 73.1031ZM37.0016 46.2411L37.5842 45.4282L37.0016 46.2411ZM24.4999 53.0001L25.4985 52.9482L24.4999 53.0001ZM57.5413 53.1295L56.784 52.4765L57.5413 53.1295ZM62.0832 -1.81627e-05L59.4666 11.2466L70.5148 7.88941L62.0832 -1.81627e-05ZM1.20447 112.973C10.4428 111.318 16.5574 110.525 25.9183 103.849L24.757 102.221C15.7934 108.613 10.0787 109.351 0.85171 111.005L1.20447 112.973ZM25.9183 103.849C35.2772 97.174 42.7572 86.7331 45.1115 73.2754L43.1414 72.9307C40.8846 85.8308 33.7225 95.8263 24.757 102.221L25.9183 103.849ZM45.1115 73.2754C45.7745 69.4854 45.6958 63.8672 44.5885 58.5709C43.4903 53.3183 41.3234 48.1079 37.5842 45.4282L36.4191 47.0539C39.5251 49.2798 41.5587 53.8523 42.6308 58.9802C43.6937 64.0644 43.7548 69.4245 43.1414 72.9307L45.1115 73.2754ZM37.5842 45.4282C34.2399 43.0316 30.6054 42.6034 27.7929 44.0749C24.9661 45.5537 23.2796 48.7873 23.5012 53.052L25.4985 52.9482C25.3068 49.2578 26.7521 46.8765 28.72 45.847C30.7021 44.81 33.5252 44.9799 36.4191 47.0539L37.5842 45.4282ZM23.5012 53.052C23.8264 59.3099 25.5995 63.3209 28.4765 65.4639C31.3569 67.6094 35.0605 67.6726 38.7506 66.701C42.4533 65.7261 46.3217 63.6685 49.7498 61.2935C53.1825 58.9153 56.2345 56.1765 58.2987 53.7825L56.784 52.4765C54.8454 54.7248 51.9249 57.3535 48.6108 59.6495C45.292 61.9488 41.6391 63.8723 38.2413 64.767C34.8308 65.665 31.8546 65.4862 29.6713 63.8599C27.4845 62.2311 25.8099 58.9403 25.4985 52.9482L23.5012 53.052ZM58.2987 53.7825C67.5454 43.0585 69.8515 25.741 65.6715 8.37495L63.727 8.84299C67.8204 25.849 65.4587 42.4159 56.784 52.4765L58.2987 53.7825Z" fill="url(#paint0_linear_469_26125)"/>
<defs>
<linearGradient id="paint0_linear_469_26125" x1="1.37924" y1="112.943" x2="66.3057" y2="-1.55516" gradientUnits="userSpaceOnUse">
<stop stop-color="#F97316" stop-opacity="0"/>
<stop offset="0.675" stop-color="#FF9D00"/>
</linearGradient>
</defs>
</svg>
