<svg width="40" height="41" viewBox="0 0 40 41" fill="none" xmlns="http://www.w3.org/2000/svg">
<g id="vuesax/linear/bitcoin-convert">
<g id="bitcoin-convert">
<path id="Vector" d="M38.3334 27.1166C38.3334 33.5666 33.1167 38.7833 26.6667 38.7833L28.4167 35.8666" stroke="#292D32" stroke-width="1.5" stroke-linecap="round" stroke-linejoin="round"/>
<path id="Vector_2" d="M1.66675 13.7833C1.66675 7.33328 6.88341 2.11662 13.3334 2.11662L11.5834 5.03328" stroke="#292D32" stroke-width="1.5" stroke-linecap="round" stroke-linejoin="round"/>
<g id="Group">
<g id="Group_2">
<path id="Vector_3" d="M11.0334 22.2833H15.7168C16.7501 22.2833 17.6001 23.2167 17.6001 24.1667C17.6001 25.2 16.7668 26.05 15.7168 26.05H11.0334V22.2833Z" stroke="#292D32" stroke-width="1.5" stroke-miterlimit="10" stroke-linecap="round" stroke-linejoin="round"/>
<path id="Vector_4" d="M11.0334 26.05H16.4001C17.5834 26.05 18.5501 26.8834 18.5501 27.9334C18.5501 28.9667 17.5834 29.8167 16.4001 29.8167H11.0334V26.05Z" stroke="#292D32" stroke-width="1.5" stroke-miterlimit="10" stroke-linecap="round" stroke-linejoin="round"/>
<path id="Vector_5" d="M14.0334 29.8V31.6667" stroke="#292D32" stroke-width="1.5" stroke-miterlimit="10" stroke-linecap="round" stroke-linejoin="round"/>
<path id="Vector_6" d="M14.0334 20.4167V22.2833" stroke="#292D32" stroke-width="1.5" stroke-miterlimit="10" stroke-linecap="round" stroke-linejoin="round"/>
</g>
<path id="Vector_7" d="M24.75 26.05C24.75 31.7334 20.15 36.3333 14.4667 36.3333C8.78335 36.3333 4.18335 31.7334 4.18335 26.05C4.18335 20.3667 8.78335 15.7666 14.4667 15.7666C14.7334 15.7666 14.9834 15.7833 15.2667 15.8C20.3167 16.1833 24.35 20.2166 24.7334 25.2666C24.7334 25.5166 24.75 25.7667 24.75 26.05Z" stroke="#292D32" stroke-width="1.5" stroke-miterlimit="10" stroke-linecap="round" stroke-linejoin="round"/>
<path id="Vector_8" d="M35.8333 14.95C35.8333 20.6333 31.2333 25.2334 25.5499 25.2334H24.7333C24.3499 20.1834 20.3166 16.15 15.2666 15.7666V14.95C15.2666 9.26664 19.8666 4.66666 25.5499 4.66666C31.2333 4.66666 35.8333 9.26664 35.8333 14.95Z" stroke="#292D32" stroke-width="1.5" stroke-miterlimit="10" stroke-linecap="round" stroke-linejoin="round"/>
</g>
</g>
</g>
</svg>
