<svg width="20" height="20" viewBox="0 0 20 20" fill="none" xmlns="http://www.w3.org/2000/svg">
<g id="vuesax/bold/bookmark">
<path id="Vector" d="M18.3337 6.50819V13.4915C18.3337 16.1665 16.167 18.3332 13.492 18.3332H6.50866C3.83366 18.3332 1.66699 16.1665 1.66699 13.4915V6.50819C1.66699 4.43319 2.51699 2.92486 4.02533 2.19153C4.57533 1.92486 5.20866 2.34153 5.20866 2.94986V10.3499C5.20866 11.3415 5.59199 12.1332 6.28366 12.5332C6.98366 12.9249 7.86699 12.8415 8.76699 12.2999L9.85033 11.6499C9.91699 11.6165 10.0837 11.6165 10.1337 11.6415L11.2337 12.2999C11.8337 12.6582 12.3503 12.7749 12.767 12.7749C13.2003 12.7749 13.5337 12.6415 13.7337 12.5249C14.4087 12.1332 14.792 11.3415 14.792 10.3499V2.94986C14.792 2.34153 15.4337 1.92486 15.9753 2.19153C17.4837 2.92486 18.3337 4.43319 18.3337 6.50819Z" fill="#292D32"/>
<path id="Vector_2" d="M12.708 1.6665C13.1663 1.6665 13.5413 2.0415 13.5413 2.49984V10.3498C13.5413 10.8832 13.383 11.2832 13.108 11.4415C12.8247 11.6082 12.3747 11.5248 11.8747 11.2248L10.7747 10.5665C10.3497 10.3082 9.64967 10.3082 9.22467 10.5665L8.12467 11.2248C7.62467 11.5248 7.17467 11.5998 6.89134 11.4415C6.61634 11.2832 6.45801 10.8832 6.45801 10.3498V2.49984C6.45801 2.0415 6.83301 1.6665 7.29134 1.6665H12.708Z" fill="#292D32"/>
</g>
</svg>
