<svg width="16" height="16" viewBox="0 0 16 16" fill="none" xmlns="http://www.w3.org/2000/svg">
<g id="chevron-down">
<path id="Vector" fill-rule="evenodd" clip-rule="evenodd" d="M1.64689 4.64599C1.69334 4.59943 1.74852 4.56249 1.80926 4.53728C1.87001 4.51207 1.93513 4.4991 2.00089 4.4991C2.06666 4.4991 2.13178 4.51207 2.19253 4.53728C2.25327 4.56249 2.30845 4.59943 2.35489 4.64599L8.00089 10.293L13.6469 4.64599C13.6934 4.59951 13.7486 4.56263 13.8093 4.53747C13.87 4.51231 13.9352 4.49936 14.0009 4.49936C14.0666 4.49936 14.1317 4.51231 14.1925 4.53747C14.2532 4.56263 14.3084 4.59951 14.3549 4.64599C14.4014 4.69248 14.4383 4.74767 14.4634 4.80841C14.4886 4.86915 14.5015 4.93425 14.5015 4.99999C14.5015 5.06574 14.4886 5.13084 14.4634 5.19158C14.4383 5.25232 14.4014 5.30751 14.3549 5.35399L8.35489 11.354C8.30845 11.4006 8.25327 11.4375 8.19253 11.4627C8.13178 11.4879 8.06666 11.5009 8.00089 11.5009C7.93513 11.5009 7.87001 11.4879 7.80926 11.4627C7.74852 11.4375 7.69334 11.4006 7.64689 11.354L1.64689 5.35399C1.60033 5.30755 1.56339 5.25237 1.53818 5.19163C1.51297 5.13088 1.5 5.06576 1.5 4.99999C1.5 4.93423 1.51297 4.8691 1.53818 4.80836C1.56339 4.74761 1.60033 4.69244 1.64689 4.64599Z" fill="#6B7280"/>
</g>
</svg>
