<svg width="164" height="48" viewBox="0 0 164 48" fill="none" xmlns="http://www.w3.org/2000/svg">
<g id="Company logo" clip-path="url(#clip0_2481_20021)">
<g id="Vector">
<path d="M45.6504 14.0131H53.2725C58.1318 14.0131 62.1461 16.8247 62.1461 23.2442V24.5931C62.1461 31.0613 58.3919 33.9704 53.4188 33.9704H45.6504V14.0131ZM49.9084 17.6373V30.33H53.175C55.9378 30.33 57.7906 28.526 57.7906 24.5118V23.4555C57.7906 19.4412 55.8403 17.6373 53.0288 17.6373H49.9084ZM64.4051 17.8323H67.818L68.3706 21.5865C69.0206 19.0349 70.6783 17.6698 73.6849 17.6698H74.7413V21.9765H72.9861C69.5244 21.9765 68.6793 23.1792 68.6793 26.5921V34.0192H64.4701V17.8323H64.4051ZM75.5864 26.2508V25.7957C75.5864 20.3838 79.0481 17.426 83.7611 17.426C88.5717 17.426 91.9358 20.3838 91.9358 25.7957V26.2508C91.9358 31.5652 88.6692 34.4255 83.7611 34.4255C78.5442 34.3767 75.5864 31.5814 75.5864 26.2508ZM87.6291 26.202V25.7957C87.6291 22.7891 86.1176 20.9852 83.7123 20.9852C81.3558 20.9852 79.7956 22.6429 79.7956 25.7957V26.202C79.7956 29.1111 81.3071 30.7688 83.7123 30.7688C86.1176 30.7201 87.6291 29.1111 87.6291 26.202ZM94.1461 17.8323H97.6565L98.0628 20.8877C98.9079 18.8399 100.712 17.426 103.377 17.426C107.489 17.426 110.203 20.3838 110.203 25.8607V26.3158C110.203 31.6302 107.196 34.4417 103.377 34.4417C100.826 34.4417 99.0704 33.2879 98.209 31.4351V39.6098H94.0973L94.1461 17.8323ZM105.929 26.202V25.8445C105.929 22.6266 104.271 21.0339 102.061 21.0339C99.7042 21.0339 98.144 22.8379 98.144 25.8445V26.1533C98.144 29.0136 99.6555 30.8176 102.012 30.8176C104.434 30.7688 105.929 29.2249 105.929 26.202ZM116.427 31.0288L116.07 33.9867H112.462V12.4204H116.574V20.6926C117.484 18.5799 119.288 17.426 121.839 17.426C125.707 17.4748 128.568 20.1401 128.568 25.5032V26.007C128.568 31.3701 125.854 34.4417 121.742 34.4417C119.028 34.3767 117.273 33.1253 116.427 31.0288ZM124.245 26.007V25.6007C124.245 22.6429 122.636 20.9852 120.377 20.9852C118.069 20.9852 116.46 22.8379 116.46 25.6495V26.007C116.46 29.0136 118.02 30.7688 120.328 30.7688C122.798 30.7688 124.245 29.2249 124.245 26.007ZM130.372 26.2508V25.7957C130.372 20.3838 133.833 17.426 138.546 17.426C143.357 17.426 146.721 20.3838 146.721 25.7957V26.2508C146.721 31.5652 143.406 34.4255 138.546 34.4255C133.329 34.3767 130.372 31.5814 130.372 26.2508ZM142.447 26.202V25.7957C142.447 22.7891 140.935 20.9852 138.53 20.9852C136.174 20.9852 134.613 22.6429 134.613 25.7957V26.202C134.613 29.1111 136.125 30.7688 138.53 30.7688C140.952 30.7201 142.447 29.1111 142.447 26.202ZM152.23 25.6007L146.558 17.8323H151.418L154.684 22.6916L158 17.8323H162.81L157.057 25.5519L163.119 33.9867H158.357L154.652 28.6236L151.044 33.9867H146.071L152.23 25.6007Z" fill="black"/>
</g>
<path id="Vector_2" d="M19.4518 14.0132L10.0257 20.0264L19.4518 26.0396L10.0257 32.0528L0.599609 26.0071L10.0257 19.9939L0.599609 14.0132L10.0257 8L19.4518 14.0132ZM9.97696 33.9868L19.4031 27.9736L28.8292 33.9868L19.4031 40L9.97696 33.9868ZM19.4518 26.0071L28.8779 19.9939L19.4518 14.0132L28.8292 8L38.2553 14.0132L28.8292 20.0264L38.2553 26.0396L28.8292 32.0528L19.4518 26.0071Z" fill="#0061FF"/>
</g>
<defs>
<clipPath id="clip0_2481_20021">
<rect width="163" height="48" fill="white" transform="translate(0.599609)"/>
</clipPath>
</defs>
</svg>
