<svg width="33" height="33" viewBox="0 0 33 33" fill="none" xmlns="http://www.w3.org/2000/svg">
<g id="facebook" clip-path="url(#clip0_469_26372)">
<path id="Vector" d="M16.6289 32.502C25.4655 32.502 32.6289 25.3385 32.6289 16.502C32.6289 7.6654 25.4655 0.501953 16.6289 0.501953C7.79235 0.501953 0.628906 7.6654 0.628906 16.502C0.628906 25.3385 7.79235 32.502 16.6289 32.502Z" fill="#1977F3"/>
<path id="Vector_2" d="M22.8579 21.1287L23.5666 16.5026H19.1295V13.5011C19.1295 12.2366 19.7483 11.0013 21.7373 11.0013H23.7556V7.06373C23.7556 7.06373 21.9241 6.75098 20.1736 6.75098C16.5195 6.75098 14.13 8.96501 14.13 12.9768V16.5026H10.0664V21.1287H14.13V32.3091C14.9445 32.4374 15.7792 32.5026 16.6298 32.5026C17.4803 32.5026 18.315 32.4351 19.1295 32.3091V21.1287H22.8579Z" fill="white"/>
</g>
<defs>
<clipPath id="clip0_469_26372">
<rect width="32" height="32" fill="white" transform="translate(0.628906 0.5)"/>
</clipPath>
</defs>
</svg>
