<svg width="36" height="36" viewBox="0 0 36 36" fill="none" xmlns="http://www.w3.org/2000/svg">
<g id="figma" clip-path="url(#clip0_469_26351)">
<path id="Vector" d="M15.0851 34.5758C18.0133 34.2715 20.1429 31.648 19.8386 28.7198L19.2873 23.415L13.9825 23.9663C11.0543 24.2706 8.92471 26.8941 9.22903 29.8223C9.53334 32.7506 12.1569 34.8801 15.0851 34.5758Z" fill="#0ACF83"/>
<path id="Vector_2" d="M8.12551 19.213C7.8212 16.2847 9.95075 13.6612 12.879 13.3569L18.1837 12.8056L19.2863 23.4151L13.9816 23.9664C11.0533 24.2708 8.42982 22.1412 8.12551 19.213Z" fill="#A259FF"/>
<path id="Vector_3" d="M7.02395 8.60359C6.71963 5.67536 8.84919 3.05185 11.7774 2.74754L17.0822 2.19624L18.1848 12.8058L12.88 13.3571C9.95177 13.6614 7.32826 11.5318 7.02395 8.60359Z" fill="#F24E1E"/>
<path id="Vector_4" d="M17.082 2.19629L22.3868 1.645C25.315 1.34068 27.9385 3.47024 28.2429 6.39847C28.5472 9.3267 26.4176 11.9502 23.4894 12.2545L18.1846 12.8058L17.082 2.19629Z" fill="#FF7262"/>
<path id="Vector_5" d="M29.3444 17.0078C29.6487 19.9361 27.5192 22.5596 24.5909 22.8639C21.6627 23.1682 19.0392 21.0387 18.7349 18.1104C18.4306 15.1822 20.5601 12.5587 23.4884 12.2544C26.4166 11.9501 29.0401 14.0796 29.3444 17.0078Z" fill="#1ABCFE"/>
</g>
<defs>
<clipPath id="clip0_469_26351">
<rect width="32" height="32" fill="white" transform="translate(0.503906 3.91895) rotate(-5.9331)"/>
</clipPath>
</defs>
</svg>
