<svg width="33" height="33" viewBox="0 0 33 33" fill="none" xmlns="http://www.w3.org/2000/svg">
<g id="google" clip-path="url(#clip0_469_26373)">
<path id="Vector" d="M31.9474 16.8601C31.9474 15.5401 31.8475 14.5801 31.6079 13.5801H16.6074V19.5201H25.4159C25.2362 21.0001 24.2774 23.2201 22.1402 24.7201L22.1202 24.9201L26.8541 28.6001L27.1736 28.6401C30.2097 25.8401 31.9474 21.7201 31.9474 16.8601Z" fill="#4285F4"/>
<path id="Vector_2" d="M16.6091 32.5002C20.9234 32.5002 24.5387 31.0802 27.1952 28.6202L22.1618 24.7002C20.8036 25.6402 19.0059 26.3002 16.629 26.3002C12.3946 26.3002 8.81921 23.5002 7.54088 19.6602L7.36112 19.6802L2.40758 23.5002L2.34766 23.6802C4.96424 28.9002 10.3572 32.5002 16.6091 32.5002Z" fill="#34A853"/>
<path id="Vector_3" d="M7.51992 19.6602C7.18036 18.6602 6.98062 17.6002 6.98062 16.5002C6.98062 15.4002 7.18036 14.3402 7.49994 13.3402V13.1202L2.50646 9.24023L2.34667 9.32023C1.2481 11.4802 0.628906 13.9202 0.628906 16.5002C0.628906 19.0802 1.2481 21.5202 2.32669 23.6802L7.51992 19.6602Z" fill="#FBBC05"/>
<path id="Vector_4" d="M16.6075 6.68C19.6036 6.68 21.641 7.98 22.7795 9.06L27.2936 4.66C24.5172 2.08 20.9219 0.5 16.6075 0.5C10.3557 0.5 4.96273 4.1 2.32617 9.32L7.49942 13.34C8.79773 9.48 12.3731 6.68 16.6075 6.68Z" fill="#EB4335"/>
</g>
<defs>
<clipPath id="clip0_469_26373">
<rect width="32" height="32" fill="white" transform="translate(0.628906 0.5)"/>
</clipPath>
</defs>
</svg>
