<svg width="16" height="16" viewBox="0 0 16 16" fill="none" xmlns="http://www.w3.org/2000/svg">
<g id="vuesax/bold/money-3">
<g id="money-3">
<path id="Vector" d="M11.333 2.3335H4.66634C2.66634 2.3335 1.33301 3.3335 1.33301 5.66683V10.3335C1.33301 12.6668 2.66634 13.6668 4.66634 13.6668H11.333C13.333 13.6668 14.6663 12.6668 14.6663 10.3335V5.66683C14.6663 3.3335 13.333 2.3335 11.333 2.3335ZM5.33301 11.8335H3.33301C3.05967 11.8335 2.83301 11.6068 2.83301 11.3335C2.83301 11.0602 3.05967 10.8335 3.33301 10.8335H5.33301C5.60634 10.8335 5.83301 11.0602 5.83301 11.3335C5.83301 11.6068 5.60634 11.8335 5.33301 11.8335ZM7.99967 10.0002C6.89301 10.0002 5.99967 9.10683 5.99967 8.00016C5.99967 6.8935 6.89301 6.00016 7.99967 6.00016C9.10634 6.00016 9.99967 6.8935 9.99967 8.00016C9.99967 9.10683 9.10634 10.0002 7.99967 10.0002ZM12.6663 5.16683H10.6663C10.393 5.16683 10.1663 4.94016 10.1663 4.66683C10.1663 4.3935 10.393 4.16683 10.6663 4.16683H12.6663C12.9397 4.16683 13.1663 4.3935 13.1663 4.66683C13.1663 4.94016 12.9397 5.16683 12.6663 5.16683Z" fill="#292D32"/>
</g>
</g>
</svg>
