<svg width="40" height="41" viewBox="0 0 40 41" fill="none" xmlns="http://www.w3.org/2000/svg">
<g id="vuesax/linear/pen-tool-2">
<g id="pen-tool-2">
<g id="Group">
<g id="Group_2">
<path id="Vector" d="M17.9169 38H22.1169C23.7169 38 24.7502 36.8667 24.4502 35.4833L23.7669 32.4668H16.2669L15.5835 35.4833C15.2835 36.7833 16.4169 38 17.9169 38Z" stroke="#292D32" stroke-width="1.5" stroke-linecap="round" stroke-linejoin="round"/>
<path id="Vector_2" d="M23.7668 32.4501L26.6501 29.8834C28.2668 28.45 28.3334 27.45 27.0501 25.8333L21.9667 19.3834C20.9001 18.0334 19.1501 18.0334 18.0834 19.3834L13.0001 25.8333C11.7168 27.45 11.7167 28.5 13.4001 29.8834L16.2834 32.4501" stroke="#292D32" stroke-width="1.5" stroke-linecap="round" stroke-linejoin="round"/>
<path id="Vector_3" d="M20.0168 19.0333V23.25" stroke="#292D32" stroke-width="1.5" stroke-linecap="round" stroke-linejoin="round"/>
</g>
</g>
<g id="Group_3">
<path id="Vector_4" d="M20.8668 8.83333H19.2001C18.2834 8.83333 17.5334 8.08333 17.5334 7.16666V5.49999C17.5334 4.58333 18.2834 3.83333 19.2001 3.83333H20.8668C21.7834 3.83333 22.5334 4.58333 22.5334 5.49999V7.16666C22.5334 8.08333 21.7834 8.83333 20.8668 8.83333Z" stroke="#292D32" stroke-width="1.5" stroke-linecap="round" stroke-linejoin="round"/>
<path id="Vector_5" d="M5.45011 24.1167H7.11678C8.03345 24.1167 8.78345 23.3667 8.78345 22.4501V20.7834C8.78345 19.8667 8.03345 19.1166 7.11678 19.1166H5.45011C4.53345 19.1166 3.78345 19.8667 3.78345 20.7834V22.4501C3.78345 23.3667 4.53345 24.1167 5.45011 24.1167Z" stroke="#292D32" stroke-width="1.5" stroke-linecap="round" stroke-linejoin="round"/>
<path id="Vector_6" d="M34.5501 24.1167H32.8835C31.9668 24.1167 31.2168 23.3667 31.2168 22.4501V20.7834C31.2168 19.8667 31.9668 19.1166 32.8835 19.1166H34.5501C35.4668 19.1166 36.2168 19.8667 36.2168 20.7834V22.4501C36.2168 23.3667 35.4668 24.1167 34.5501 24.1167Z" stroke="#292D32" stroke-width="1.5" stroke-linecap="round" stroke-linejoin="round"/>
<path id="Vector_7" d="M17.5333 6.43332C11.1833 7.18332 6.25 12.5666 6.25 19.1166" stroke="#292D32" stroke-width="1.5" stroke-linecap="round" stroke-linejoin="round"/>
<path id="Vector_8" d="M33.7501 19.1166C33.7501 12.5833 28.8501 7.21665 22.5334 6.43332" stroke="#292D32" stroke-width="1.5" stroke-linecap="round" stroke-linejoin="round"/>
</g>
</g>
</g>
</svg>
