<svg width="141" height="48" viewBox="0 0 141 48" fill="none" xmlns="http://www.w3.org/2000/svg">
<g id="Company logo" clip-path="url(#clip0_2481_20013)">
<path id="Vector" d="M21.2719 3.0791C9.67392 3.0791 0.271484 12.4813 0.271484 24.0792C0.271484 35.6777 9.67392 45.0791 21.2719 45.0791C32.8711 45.0791 42.2725 35.6777 42.2725 24.0792C42.2725 12.482 32.8711 3.0801 21.2716 3.0801L21.2719 3.0791ZM30.9025 33.3673C30.5264 33.9842 29.7189 34.1798 29.102 33.8011C24.1713 30.7894 17.9642 30.1073 10.6542 31.7774C9.94977 31.9379 9.24761 31.4966 9.08712 30.7919C8.92587 30.0872 9.36547 29.3851 10.0716 29.2246C18.0713 27.3969 24.9331 28.1839 30.4687 31.5668C31.0856 31.9454 31.2812 32.7504 30.9025 33.3673ZM33.4729 27.6492C32.999 28.4196 31.9909 28.6628 31.221 28.1889C25.5761 24.7192 16.9714 23.7144 10.2946 25.7411C9.42867 26.0026 8.5141 25.5146 8.25129 24.6502C7.99049 23.7843 8.47875 22.8715 9.34316 22.6082C16.9699 20.2941 26.4513 21.415 32.9338 25.3985C33.7036 25.8725 33.9469 26.8806 33.4729 27.6495V27.6492ZM33.6936 21.6949C26.9253 17.6748 15.7584 17.3051 9.29626 19.2664C8.25857 19.5811 7.16119 18.9953 6.84672 17.9576C6.53225 16.9194 7.11756 15.8228 8.156 15.5073C15.5741 13.2554 27.9058 13.6905 35.6983 18.3165C36.6336 18.8704 36.9396 20.0759 36.3854 21.008C35.8337 21.9414 34.625 22.2491 33.6946 21.6949H33.6936ZM57.4066 22.4653C53.7804 21.6006 53.1359 20.9937 53.1359 19.7186C53.1359 18.5139 54.2694 17.7031 55.9571 17.7031C57.5922 17.7031 59.2121 18.3187 60.9124 19.5861C60.9625 19.6245 61.0277 19.6398 61.0904 19.6298C61.1556 19.6203 61.2108 19.5854 61.2484 19.533L63.0189 17.0373C63.0916 16.9345 63.0715 16.7928 62.9737 16.7143C60.95 15.0911 58.673 14.3019 56.0098 14.3019C52.0952 14.3019 49.3593 16.6514 49.3593 20.013C49.3593 23.6178 51.7191 24.8942 55.7966 25.8795C59.2648 26.6787 59.8516 27.3483 59.8516 28.545C59.8516 29.8716 58.668 30.6966 56.7621 30.6966C54.6456 30.6966 52.9178 29.9819 50.9868 28.3118C50.9392 28.2691 50.874 28.2516 50.8138 28.2541C50.7486 28.2591 50.6909 28.2892 50.6508 28.3368L48.6647 30.6991C48.5819 30.7994 48.592 30.9449 48.6872 31.0301C50.9342 33.0363 53.6977 34.0945 56.6819 34.0945C60.8998 34.0945 63.6257 31.79 63.6257 28.2215C63.6332 25.2105 61.8302 23.5428 57.4141 22.4685L57.4066 22.4653ZM73.1701 18.8893C71.342 18.8893 69.8424 19.6095 68.6035 21.0853V19.4242C68.6035 19.293 68.4982 19.1862 68.3678 19.1862H65.1203C64.9899 19.1862 64.8846 19.293 64.8846 19.4242V37.8812C64.8846 38.0116 64.9899 38.1194 65.1203 38.1194H68.3678C68.4982 38.1194 68.6035 38.0116 68.6035 37.8812V32.0558C69.8424 33.4425 71.342 34.1221 73.1701 34.1221C76.5681 34.1221 80.0087 31.5066 80.0087 26.5064C80.0137 21.5053 76.5731 18.889 73.1726 18.889L73.1701 18.8893ZM76.232 26.5064C76.232 29.0515 74.6647 30.8295 72.4178 30.8295C70.1985 30.8295 68.5233 28.9713 68.5233 26.5064C68.5233 24.0414 70.1985 22.1836 72.4178 22.1836C74.6271 22.1834 76.232 24.001 76.232 26.5062V26.5064ZM88.8233 18.8893C84.4473 18.8893 81.0193 22.2586 81.0193 26.5609C81.0193 30.817 84.4247 34.1497 88.7706 34.1497C93.1616 34.1497 96.5997 30.7919 96.5997 26.5064C96.5997 22.2356 93.1842 18.8898 88.8233 18.8898V18.8893ZM88.8233 30.8546C86.4961 30.8546 84.7407 28.9838 84.7407 26.5052C84.7407 24.0153 86.4359 22.2085 88.7706 22.2085C91.1128 22.2085 92.8783 24.0785 92.8783 26.5596C92.8783 29.049 91.173 30.8546 88.8233 30.8546ZM105.943 19.1862H102.37V15.5334C102.37 15.4025 102.265 15.2957 102.134 15.2957H98.8867C98.7564 15.2957 98.6485 15.4025 98.6485 15.5334V19.1862H97.0887C96.9583 19.1862 96.853 19.293 96.853 19.4242V22.2145C96.853 22.3454 96.9583 22.4525 97.0887 22.4525H98.6485V29.6734C98.6485 32.5899 100.1 34.0695 102.967 34.0695C104.13 34.0695 105.096 33.8287 106.006 33.3121C106.081 33.272 106.127 33.1918 106.127 33.1065V30.4483C106.127 30.3681 106.084 30.2903 106.014 30.2477C105.943 30.2026 105.856 30.2001 105.783 30.2377C105.159 30.5511 104.554 30.6966 103.877 30.6966C102.836 30.6966 102.37 30.2226 102.37 29.1644V22.4537H105.943C106.074 22.4537 106.179 22.3469 106.179 22.2157V19.4257C106.184 19.2945 106.079 19.1877 105.946 19.1877L105.943 19.1862ZM118.392 19.2005V18.7518C118.392 17.432 118.898 16.8435 120.032 16.8435C120.709 16.8435 121.253 16.9779 121.862 17.181C121.938 17.2046 122.015 17.1928 122.076 17.1479C122.138 17.103 122.173 17.031 122.173 16.9548V14.2189C122.173 14.1143 122.108 14.0218 122.005 13.9909C121.363 13.7996 120.541 13.6032 119.307 13.6032C116.31 13.6032 114.723 15.2919 114.723 18.485V19.1721H113.163C113.033 19.1721 112.925 19.279 112.925 19.4099V22.2145C112.925 22.3454 113.033 22.4525 113.163 22.4525H114.723V33.588C114.723 33.7209 114.831 33.8262 114.961 33.8262H118.206C118.339 33.8262 118.444 33.7209 118.444 33.588V22.4532H121.476L126.121 33.588C125.594 34.7566 125.075 34.9898 124.368 34.9898C123.796 34.9898 123.192 34.8193 122.577 34.4807C122.519 34.4506 122.449 34.4456 122.389 34.4632C122.326 34.4858 122.274 34.5309 122.249 34.5911L121.148 37.006C121.095 37.1214 121.14 37.2543 121.251 37.3145C122.399 37.9364 123.435 38.2022 124.716 38.2022C127.114 38.2022 128.44 37.0837 129.606 34.0795L135.239 19.5255C135.269 19.4522 135.259 19.3695 135.214 19.3045C135.171 19.2401 135.098 19.2012 135.02 19.2012H131.64C131.537 19.2012 131.447 19.2657 131.414 19.3607L127.951 29.2496L124.16 19.3542C124.124 19.2622 124.037 19.2012 123.939 19.2012H118.392V19.2005ZM111.175 19.1862H107.927C107.797 19.1862 107.689 19.293 107.689 19.4242V33.588C107.689 33.7209 107.797 33.8262 107.927 33.8262H111.175C111.305 33.8262 111.413 33.7209 111.413 33.588V19.4252C111.413 19.294 111.307 19.1872 111.175 19.1872V19.1862ZM109.57 12.7366C108.283 12.7366 107.24 13.7778 107.24 15.064C107.24 16.3509 108.283 17.3934 109.57 17.3934C110.856 17.3934 111.897 16.3509 111.897 15.064C111.897 13.778 110.854 12.7366 109.57 12.7366ZM138.012 23.7404C136.728 23.7404 135.728 22.7085 135.728 21.4554C135.728 20.2023 136.741 19.1586 138.025 19.1586C139.309 19.1586 140.309 20.1903 140.309 21.4424C140.309 22.6955 139.296 23.7404 138.012 23.7404ZM138.025 19.3858C136.854 19.3858 135.968 20.3161 135.968 21.4554C135.968 22.5942 136.849 23.512 138.012 23.512C139.183 23.512 140.068 22.5824 140.068 21.4424C140.068 20.3036 139.188 19.3858 138.025 19.3858ZM138.531 21.6773L139.178 22.5821H138.632L138.05 21.7521H137.551V22.5821H137.094V20.1837H138.163C138.722 20.1837 139.088 20.4689 139.088 20.9488C139.09 21.3421 138.862 21.5823 138.534 21.6773H138.531ZM138.145 20.5953H137.551V21.3538H138.145C138.441 21.3538 138.619 21.2086 138.619 20.9742C138.619 20.7274 138.441 20.5953 138.145 20.5953Z" fill="#1ED760"/>
</g>
<defs>
<clipPath id="clip0_2481_20013">
<rect width="140" height="48" fill="white" transform="translate(0.199219)"/>
</clipPath>
</defs>
</svg>
