<svg width="16" height="16" viewBox="0 0 16 16" fill="none" xmlns="http://www.w3.org/2000/svg">
<g id="star" clip-path="url(#clip0_2446_10980)">
<path id="Vector" d="M2.86563 14.8502C2.78763 15.2942 3.22563 15.6412 3.61163 15.4432L8.00163 13.1872L12.3906 15.4432C12.7766 15.6412 13.2146 15.2942 13.1366 14.8512L12.3066 10.1212L15.8286 6.76517C16.1586 6.45117 15.9886 5.87717 15.5466 5.81517L10.6486 5.11917L8.46463 0.792167C8.42303 0.704456 8.35739 0.63035 8.27534 0.57846C8.19329 0.526569 8.09821 0.499023 8.00113 0.499023C7.90405 0.499023 7.80897 0.526569 7.72692 0.57846C7.64487 0.63035 7.57924 0.704456 7.53763 0.792167L5.35363 5.12017L0.45563 5.81617C0.01463 5.87817 -0.15637 6.45217 0.17263 6.76617L3.69563 10.1222L2.86563 14.8522V14.8502ZM7.77063 12.0832L4.08463 13.9772L4.77863 10.0202C4.79489 9.92908 4.78853 9.83539 4.76011 9.74734C4.73168 9.65929 4.68207 9.57956 4.61563 9.51517L1.70963 6.74517L5.76163 6.16917C5.84553 6.1565 5.92512 6.12368 5.99356 6.07352C6.06201 6.02336 6.11728 5.95736 6.15463 5.88117L7.99963 2.22317L9.84663 5.88117C9.88399 5.95736 9.93925 6.02336 10.0077 6.07352C10.0761 6.12368 10.1557 6.1565 10.2396 6.16917L14.2916 6.74417L11.3856 9.51417C11.319 9.57866 11.2693 9.65855 11.2409 9.7468C11.2125 9.83504 11.2062 9.92893 11.2226 10.0202L11.9166 13.9772L8.23063 12.0832C8.15935 12.0464 8.08032 12.0272 8.00013 12.0272C7.91994 12.0272 7.84091 12.0464 7.76963 12.0832H7.77063Z" fill="#6B7280"/>
</g>
<defs>
<clipPath id="clip0_2446_10980">
<rect width="16" height="16" fill="white"/>
</clipPath>
</defs>
</svg>
