<svg width="40" height="40" viewBox="0 0 40 40" fill="none" xmlns="http://www.w3.org/2000/svg">
<g id="vuesax/linear/user-add">
<g id="user-add">
<path id="Vector" d="M20 20C24.6023 20 28.3333 16.269 28.3333 11.6667C28.3333 7.06429 24.6023 3.33333 20 3.33333C15.3976 3.33333 11.6666 7.06429 11.6666 11.6667C11.6666 16.269 15.3976 20 20 20Z" stroke="#292D32" stroke-width="1.5" stroke-linecap="round" stroke-linejoin="round"/>
<path id="Vector_2" d="M5.68335 36.6667C5.68335 30.2167 12.1 25 20 25C21.6 25 23.15 25.2167 24.6 25.6167" stroke="#292D32" stroke-width="1.5" stroke-linecap="round" stroke-linejoin="round"/>
<path id="Vector_3" d="M36.6667 30C36.6667 30.5333 36.6 31.05 36.4667 31.55C36.3167 32.2166 36.0501 32.8667 35.7001 33.4333C34.5501 35.3667 32.4334 36.6667 30 36.6667C28.2834 36.6667 26.7334 36.0166 25.5667 34.9499C25.0667 34.5166 24.6334 34 24.3 33.4333C23.6834 32.4333 23.3334 31.25 23.3334 30C23.3334 28.2 24.05 26.55 25.2167 25.35C26.4334 24.1 28.1334 23.3333 30 23.3333C31.9667 23.3333 33.75 24.1834 34.95 25.55C36.0167 26.7334 36.6667 28.3 36.6667 30Z" stroke="#292D32" stroke-width="1.5" stroke-miterlimit="10" stroke-linecap="round" stroke-linejoin="round"/>
<g id="Group">
<path id="Vector_4" d="M32.4834 29.9666H27.5167" stroke="#292D32" stroke-width="1.5" stroke-miterlimit="10" stroke-linecap="round" stroke-linejoin="round"/>
<path id="Vector_5" d="M30 27.5334V32.5167" stroke="#292D32" stroke-width="1.5" stroke-miterlimit="10" stroke-linecap="round" stroke-linejoin="round"/>
</g>
</g>
</g>
</svg>
