<svg width="16" height="16" viewBox="0 0 16 16" fill="none" xmlns="http://www.w3.org/2000/svg">
<g id="x-circle" clip-path="url(#clip0_2262_10240)">
<g id="Vector">
<mask id="path-1-inside-1_2262_10240" fill="white">
<path d="M8 15C6.14348 15 4.36301 14.2625 3.05025 12.9497C1.7375 11.637 1 9.85652 1 8C1 6.14348 1.7375 4.36301 3.05025 3.05025C4.36301 1.7375 6.14348 1 8 1C9.85652 1 11.637 1.7375 12.9497 3.05025C14.2625 4.36301 15 6.14348 15 8C15 9.85652 14.2625 11.637 12.9497 12.9497C11.637 14.2625 9.85652 15 8 15ZM8 16C10.1217 16 12.1566 15.1571 13.6569 13.6569C15.1571 12.1566 16 10.1217 16 8C16 5.87827 15.1571 3.84344 13.6569 2.34315C12.1566 0.842855 10.1217 0 8 0C5.87827 0 3.84344 0.842855 2.34315 2.34315C0.842855 3.84344 0 5.87827 0 8C0 10.1217 0.842855 12.1566 2.34315 13.6569C3.84344 15.1571 5.87827 16 8 16Z"/>
</mask>
<path d="M8 15C6.14348 15 4.36301 14.2625 3.05025 12.9497C1.7375 11.637 1 9.85652 1 8C1 6.14348 1.7375 4.36301 3.05025 3.05025C4.36301 1.7375 6.14348 1 8 1C9.85652 1 11.637 1.7375 12.9497 3.05025C14.2625 4.36301 15 6.14348 15 8C15 9.85652 14.2625 11.637 12.9497 12.9497C11.637 14.2625 9.85652 15 8 15ZM8 16C10.1217 16 12.1566 15.1571 13.6569 13.6569C15.1571 12.1566 16 10.1217 16 8C16 5.87827 15.1571 3.84344 13.6569 2.34315C12.1566 0.842855 10.1217 0 8 0C5.87827 0 3.84344 0.842855 2.34315 2.34315C0.842855 3.84344 0 5.87827 0 8C0 10.1217 0.842855 12.1566 2.34315 13.6569C3.84344 15.1571 5.87827 16 8 16Z" fill="#1F2937"/>
<path d="M1 8H0H1ZM8 1V0V1ZM16 8H17H16ZM8 0V-1V0ZM0 8H-1H0ZM8 14C6.4087 14 4.88258 13.3679 3.75736 12.2426L2.34315 13.6569C3.84344 15.1571 5.87827 16 8 16V14ZM3.75736 12.2426C2.63214 11.1174 2 9.5913 2 8H0C0 10.1217 0.842855 12.1566 2.34315 13.6569L3.75736 12.2426ZM2 8C2 6.4087 2.63214 4.88258 3.75736 3.75736L2.34315 2.34315C0.842855 3.84344 0 5.87827 0 8H2ZM3.75736 3.75736C4.88258 2.63214 6.4087 2 8 2V0C5.87827 0 3.84344 0.842855 2.34315 2.34315L3.75736 3.75736ZM8 2C9.5913 2 11.1174 2.63214 12.2426 3.75736L13.6569 2.34315C12.1566 0.842855 10.1217 0 8 0V2ZM12.2426 3.75736C13.3679 4.88258 14 6.4087 14 8H16C16 5.87827 15.1571 3.84344 13.6569 2.34315L12.2426 3.75736ZM14 8C14 9.5913 13.3679 11.1174 12.2426 12.2426L13.6569 13.6569C15.1571 12.1566 16 10.1217 16 8H14ZM12.2426 12.2426C11.1174 13.3679 9.5913 14 8 14V16C10.1217 16 12.1566 15.1571 13.6569 13.6569L12.2426 12.2426ZM8 17C10.3869 17 12.6761 16.0518 14.364 14.364L12.9497 12.9497C11.637 14.2625 9.85652 15 8 15V17ZM14.364 14.364C16.0518 12.6761 17 10.3869 17 8H15C15 9.85652 14.2625 11.637 12.9497 12.9497L14.364 14.364ZM17 8C17 5.61305 16.0518 3.32387 14.364 1.63604L12.9497 3.05025C14.2625 4.36301 15 6.14348 15 8H17ZM14.364 1.63604C12.6761 -0.0517883 10.3869 -1 8 -1V1C9.85652 1 11.637 1.7375 12.9497 3.05025L14.364 1.63604ZM8 -1C5.61305 -1 3.32387 -0.0517883 1.63604 1.63604L3.05025 3.05025C4.36301 1.7375 6.14348 1 8 1V-1ZM1.63604 1.63604C-0.0517883 3.32387 -1 5.61305 -1 8H1C1 6.14348 1.7375 4.36301 3.05025 3.05025L1.63604 1.63604ZM-1 8C-1 10.3869 -0.0517883 12.6761 1.63604 14.364L3.05025 12.9497C1.7375 11.637 1 9.85652 1 8H-1ZM1.63604 14.364C3.32387 16.0518 5.61305 17 8 17V15C6.14348 15 4.36301 14.2625 3.05025 12.9497L1.63604 14.364Z" fill="#6B7280" mask="url(#path-1-inside-1_2262_10240)"/>
</g>
<path id="Vector_2" d="M4.64592 4.64601C4.69236 4.59945 4.74754 4.5625 4.80828 4.5373C4.86903 4.51209 4.93415 4.49911 4.99992 4.49911C5.06568 4.49911 5.13081 4.51209 5.19155 4.5373C5.2523 4.5625 5.30747 4.59945 5.35392 4.64601L7.99992 7.29301L10.6459 4.64601C10.6924 4.59952 10.7476 4.56264 10.8083 4.53749C10.8691 4.51233 10.9342 4.49938 10.9999 4.49938C11.0657 4.49938 11.1308 4.51233 11.1915 4.53749C11.2522 4.56264 11.3074 4.59952 11.3539 4.64601C11.4004 4.6925 11.4373 4.74769 11.4624 4.80842C11.4876 4.86916 11.5005 4.93426 11.5005 5.00001C11.5005 5.06575 11.4876 5.13085 11.4624 5.19159C11.4373 5.25233 11.4004 5.30752 11.3539 5.35401L8.70692 8.00001L11.3539 10.646C11.4004 10.6925 11.4373 10.7477 11.4624 10.8084C11.4876 10.8692 11.5005 10.9343 11.5005 11C11.5005 11.0658 11.4876 11.1309 11.4624 11.1916C11.4373 11.2523 11.4004 11.3075 11.3539 11.354C11.3074 11.4005 11.2522 11.4374 11.1915 11.4625C11.1308 11.4877 11.0657 11.5006 10.9999 11.5006C10.9342 11.5006 10.8691 11.4877 10.8083 11.4625C10.7476 11.4374 10.6924 11.4005 10.6459 11.354L7.99992 8.70701L5.35392 11.354C5.30743 11.4005 5.25224 11.4374 5.1915 11.4625C5.13076 11.4877 5.06566 11.5006 4.99992 11.5006C4.93417 11.5006 4.86907 11.4877 4.80833 11.4625C4.74759 11.4374 4.6924 11.4005 4.64592 11.354C4.59943 11.3075 4.56255 11.2523 4.53739 11.1916C4.51223 11.1309 4.49929 11.0658 4.49929 11C4.49929 10.9343 4.51223 10.8692 4.53739 10.8084C4.56255 10.7477 4.59943 10.6925 4.64592 10.646L7.29292 8.00001L4.64592 5.35401C4.59935 5.30756 4.56241 5.25239 4.5372 5.19164C4.512 5.1309 4.49902 5.06578 4.49902 5.00001C4.49902 4.93424 4.512 4.86912 4.5372 4.80837C4.56241 4.74763 4.59935 4.69245 4.64592 4.64601Z" fill="#1F2937"/>
</g>
<defs>
<clipPath id="clip0_2262_10240">
<rect width="16" height="16" fill="white"/>
</clipPath>
</defs>
</svg>
